<svg width="33" height="32" viewBox="0 0 33 32" fill="none" xmlns="http://www.w3.org/2000/svg">
<g id="Airplane">
<path id="Vector" fill-rule="evenodd" clip-rule="evenodd" d="M1.33301 2.66634C1.33301 2.31272 1.47349 1.97358 1.72355 1.72353C1.97361 1.47348 2.31277 1.33301 2.66641 1.33301H4.01981C5.24557 1.33292 6.45935 1.57426 7.59184 2.04325C8.72432 2.51223 9.75334 3.19968 10.6201 4.06634L14.327 7.77434L23.8954 4.05434C24.6191 3.77294 25.409 3.70819 26.1687 3.86801C26.9285 4.02782 27.6254 4.40528 28.1743 4.95434L30.2771 7.05701C30.4227 7.20253 30.5326 7.37978 30.5982 7.57488C30.6639 7.76998 30.6834 7.97762 30.6554 8.18155C30.6274 8.38547 30.5525 8.58014 30.4367 8.7503C30.3209 8.92046 30.1672 9.06149 29.9877 9.16234L20.7513 14.357L23.8608 17.9103L26.8796 17.4797C27.5484 17.3841 28.2304 17.5015 28.8288 17.8151C29.4272 18.1286 29.9118 18.6226 30.2139 19.2269C30.516 19.8311 30.6202 20.5152 30.5119 21.182C30.4036 21.8489 30.0882 22.4647 29.6104 22.9423L22.9434 29.609C22.4658 30.0868 21.8499 30.4022 21.183 30.5105C20.5161 30.6188 19.832 30.5145 19.2277 30.2125C18.6234 29.9104 18.1295 29.4258 17.8159 28.8274C17.5023 28.229 17.3849 27.5471 17.4805 26.8783L17.9112 23.8597L14.3576 20.7503L9.16273 29.9863C9.06191 30.166 8.92082 30.3199 8.75054 30.4359C8.58026 30.5519 8.38541 30.6268 8.18129 30.6549C7.97717 30.6829 7.76933 30.6632 7.57408 30.5974C7.37883 30.5317 7.20148 30.4215 7.05595 30.2757L4.95585 28.173C4.40676 27.6241 4.02928 26.9273 3.86946 26.1675C3.70964 25.4078 3.77439 24.6179 4.05581 23.8943L7.77599 14.3277L4.06914 10.6183C3.20196 9.75181 2.51398 8.72294 2.04451 7.5905C1.57504 6.45806 1.33327 5.24423 1.33301 4.01834V2.66634ZM3.99981 3.99967V4.01967C3.99983 5.78745 4.702 7.48284 5.9519 8.73301L10.2761 13.057C10.4592 13.24 10.5851 13.4724 10.6384 13.7257C10.6917 13.979 10.67 14.2424 10.5761 14.4837L6.53993 24.861C6.44603 25.1023 6.4244 25.3656 6.47767 25.619C6.53095 25.8723 6.65683 26.1047 6.83994 26.2877L7.69999 27.1477L12.8376 18.013C12.9348 17.8402 13.0694 17.6913 13.2315 17.5771C13.3935 17.4629 13.5791 17.3863 13.7745 17.3528C13.9699 17.3194 14.1703 17.3299 14.3612 17.3837C14.552 17.4375 14.7285 17.5331 14.8777 17.6637L20.2113 22.3303C20.3783 22.4763 20.5062 22.6617 20.5835 22.8696C20.6608 23.0775 20.685 23.3014 20.654 23.521L20.1206 27.2543C20.1038 27.3692 20.1237 27.4865 20.1774 27.5894C20.2311 27.6924 20.3158 27.7758 20.4197 27.8277C20.5235 27.8797 20.6411 27.8977 20.7557 27.879C20.8703 27.8603 20.976 27.8059 21.058 27.7237L27.725 21.057C27.8072 20.9751 27.8616 20.8693 27.8803 20.7547C27.899 20.6401 27.881 20.5225 27.829 20.4187C27.7771 20.3149 27.6937 20.2301 27.5907 20.1764C27.4878 20.1227 27.3705 20.1029 27.2556 20.1197L23.5221 20.653C23.3023 20.6843 23.0781 20.6602 22.8699 20.5829C22.6617 20.5056 22.4762 20.3775 22.33 20.2103L17.6631 14.877C17.5326 14.7277 17.437 14.5512 17.3834 14.3603C17.3297 14.1694 17.3193 13.969 17.3529 13.7735C17.3865 13.5781 17.4632 13.3926 17.5776 13.2306C17.6919 13.0686 17.8409 12.9341 18.0138 12.837L27.1476 7.69967L26.2889 6.83967C26.1059 6.65657 25.8735 6.53069 25.6202 6.47742C25.3668 6.42415 25.1034 6.44578 24.8622 6.53967L14.483 10.5757C14.2417 10.6696 13.9783 10.6912 13.725 10.6379C13.4716 10.5847 13.2393 10.4588 13.0562 10.2757L8.73337 5.95167C7.48314 4.70183 5.78767 3.9997 4.01981 3.99967H3.99981Z" fill="#2575FC"/>
</g>
</svg>
