<svg width="46" height="46" viewBox="0 0 46 46" fill="none" xmlns="http://www.w3.org/2000/svg">
<g id="options">
<path id="Vector" d="M17.25 14.375C17.25 15.962 15.962 17.25 14.375 17.25C12.788 17.25 11.5 15.962 11.5 14.375C11.5 12.788 12.788 11.5 14.375 11.5C15.962 11.5 17.25 12.788 17.25 14.375Z" fill="#2575FC"/>
<path id="Vector_2" d="M14.3753 7.66699C10.7337 7.66699 7.66699 10.7337 7.66699 14.3753C7.66699 18.017 10.7337 21.0837 14.3753 21.0837C18.017 21.0837 21.0837 18.017 21.0837 14.3753C21.0837 10.7337 18.017 7.66699 14.3753 7.66699ZM14.3753 19.167C11.692 19.167 9.58366 17.0587 9.58366 14.3753C9.58366 11.692 11.692 9.58366 14.3753 9.58366C17.0587 9.58366 19.167 11.692 19.167 14.3753C19.167 17.0587 17.0587 19.167 14.3753 19.167Z" fill="#2575FC"/>
<path id="Vector_3" d="M14.3753 23C10.7337 23 7.66699 26.0667 7.66699 29.7083C7.66699 33.35 10.7337 36.4167 14.3753 36.4167C18.017 36.4167 21.0837 33.35 21.0837 29.7083C21.0837 26.0667 18.017 23 14.3753 23ZM14.3753 34.5C11.692 34.5 9.58366 32.3917 9.58366 29.7083C9.58366 27.025 11.692 24.9167 14.3753 24.9167C17.0587 24.9167 19.167 27.025 19.167 29.7083C19.167 32.3917 17.0587 34.5 14.3753 34.5Z" fill="#2575FC"/>
<path id="Vector_4" d="M23 11.5H38.3333V17.25H23V11.5Z" fill="#2575FC"/>
<path id="Vector_5" d="M23 26.833H38.3333V32.583H23V26.833Z" fill="#2575FC"/>
</g>
</svg>
