<svg width="33" height="33" viewBox="0 0 33 33" fill="none" xmlns="http://www.w3.org/2000/svg">
<path id="Vector" d="M32.3812 29.6792L23.7188 20.9623C23.3062 20.5472 22.6875 20.3396 22.0688 20.3396C23.7188 18.2642 24.75 15.3585 24.75 12.4528C24.75 5.60377 19.1812 0 12.375 0C5.56875 0 0 5.60377 0 12.4528C0 19.3019 5.56875 24.9057 12.375 24.9057C15.2625 24.9057 18.15 23.8679 20.2125 22C20.2125 22.6226 20.2125 23.2453 20.8313 23.6604L29.4937 32.3774C29.9062 32.7925 30.525 33 30.9375 33C31.35 33 31.9688 32.7925 32.3812 32.3774C33.2062 31.7547 33.2062 30.5094 32.3812 29.6792ZM12.375 21.7925C7.21875 21.7925 3.09375 17.6415 3.09375 12.4528C3.09375 7.26415 7.21875 3.11321 12.375 3.11321C17.5312 3.11321 21.6562 7.26415 21.6562 12.4528C21.6562 17.6415 17.5312 21.7925 12.375 21.7925Z" fill="#FF5151"/>
</svg>
