<svg width="35" height="60" viewBox="0 0 35 60" fill="none" xmlns="http://www.w3.org/2000/svg">
<path fill-rule="evenodd" clip-rule="evenodd" d="M8.58164 1.40356C7.64025 0.49277 6.37942 -0.0112031 5.07069 0.000189013C3.76197 0.0115811 2.51006 0.537426 1.58462 1.46447C0.659172 2.39151 0.134236 3.64557 0.122863 4.95655C0.111491 6.26754 0.614594 7.53055 1.52382 8.47356L22.9519 29.9386L1.52382 51.4035C1.04709 51.8648 0.666828 52.4165 0.405234 53.0265C0.143641 53.6366 0.0059476 54.2927 0.000188453 54.9566C-0.00557069 55.6204 0.120724 56.2788 0.371695 56.8933C0.622667 57.5078 0.993292 58.0661 1.46195 58.5355C1.9306 59.005 2.4879 59.3763 3.10132 59.6277C3.71475 59.8791 4.37201 60.0056 5.03476 59.9998C5.69752 59.994 6.35249 59.8561 6.96146 59.5941C7.57043 59.332 8.1212 58.9511 8.58164 58.4736L33.5386 33.4736C34.4743 32.5359 35 31.2644 35 29.9386C35 28.6127 34.4743 27.3412 33.5386 26.4036L8.58164 1.40356Z" fill="#DEDEDE"/>
</svg>
