<svg width="21" height="36" viewBox="0 0 21 36" fill="none" xmlns="http://www.w3.org/2000/svg">
<path fill-rule="evenodd" clip-rule="evenodd" d="M5.14898 0.842136C4.58415 0.295662 3.82765 -0.00672185 3.04242 0.000113408C2.25718 0.00694866 1.50604 0.322455 0.95077 0.87868C0.395503 1.4349 0.0805416 2.18734 0.0737181 2.97393C0.0668946 3.76052 0.368756 4.51833 0.914289 5.08413L13.7711 17.9631L0.914289 30.8421C0.628252 31.1189 0.400097 31.4499 0.243141 31.8159C0.0861843 32.1819 0.00356856 32.5756 0.000113072 32.9739C-0.00334242 33.3723 0.0724342 33.7673 0.223017 34.136C0.3736 34.5047 0.595975 34.8396 0.877168 35.1213C1.15836 35.403 1.49274 35.6258 1.86079 35.7766C2.22885 35.9274 2.62321 36.0033 3.02086 35.9999C3.41851 35.9964 3.81149 35.9137 4.17687 35.7564C4.54226 35.5992 4.87272 35.3707 5.14898 35.0841L20.1232 20.0841C20.6846 19.5216 21 18.7586 21 17.9631C21 17.1676 20.6846 16.4047 20.1232 15.8421L5.14898 0.842136Z" fill="#33CA94"/>
</svg>
