<svg width="81" height="76" viewBox="0 0 81 76" fill="none" xmlns="http://www.w3.org/2000/svg">
<path d="M70.5833 0.041687V15.1667H55.4583V0.041687H25.2083V15.1667H10.0833V0.041687H0V75.6667H80.6667V0.041687H70.5833ZM15.125 70.625H5.04167V60.5417H15.125V70.625ZM15.125 55.5H5.04167V45.4167H15.125V55.5ZM15.125 40.375H5.04167V30.2917H15.125V40.375ZM30.25 70.625H20.1667V60.5417H30.25V70.625ZM30.25 55.5H20.1667V45.4167H30.25V55.5ZM30.25 40.375H20.1667V30.2917H30.25V40.375ZM45.375 70.625H35.2917V60.5417H45.375V70.625ZM45.375 55.5H35.2917V45.4167H45.375V55.5ZM45.375 40.375H35.2917V30.2917H45.375V40.375ZM60.5 70.625H50.4167V60.5417H60.5V70.625ZM60.5 55.5H50.4167V45.4167H60.5V55.5ZM60.5 40.375H50.4167V30.2917H60.5V40.375ZM75.625 70.625H65.5417V60.5417H75.625V70.625ZM75.625 55.5H65.5417V45.4167H75.625V55.5ZM75.625 40.375H65.5417V30.2917H75.625V40.375Z" fill="white"/>
</svg>
