<svg width="43" height="47" viewBox="0 0 43 47" fill="none" xmlns="http://www.w3.org/2000/svg">
<path fill-rule="evenodd" clip-rule="evenodd" d="M0.875 5.16705C0.875 3.95142 1.35789 2.78557 2.21743 1.92599C3.07697 1.0664 4.24276 0.583496 5.45833 0.583496H37.5417C38.7572 0.583496 39.923 1.0664 40.7826 1.92599C41.6421 2.78557 42.125 3.95142 42.125 5.16705V39.5437C42.125 41.3672 41.4007 43.1159 40.1114 44.4053C38.822 45.6947 37.0734 46.419 35.25 46.419H7.75C5.92664 46.419 4.17795 45.6947 2.88864 44.4053C1.59933 43.1159 0.875 41.3672 0.875 39.5437V5.16705ZM37.5417 5.16705H5.45833V39.5437C5.45833 40.1515 5.69978 40.7345 6.12955 41.1642C6.55932 41.594 7.14221 41.8355 7.75 41.8355H35.25C35.8578 41.8355 36.4407 41.594 36.8705 41.1642C37.3002 40.7345 37.5417 40.1515 37.5417 39.5437V5.16705ZM23.7917 21.2095C23.7917 21.8173 23.5502 22.4002 23.1205 22.83C22.6907 23.2598 22.1078 23.5013 21.5 23.5013C20.8922 23.5013 20.3093 23.2598 19.8795 22.83C19.4498 22.4002 19.2083 21.8173 19.2083 21.2095C19.2083 20.6017 19.4498 20.0188 19.8795 19.589C20.3093 19.1592 20.8922 18.9177 21.5 18.9177C22.1078 18.9177 22.6907 19.1592 23.1205 19.589C23.5502 20.0188 23.7917 20.6017 23.7917 21.2095ZM12.3333 23.5013C12.9411 23.5013 13.524 23.2598 13.9538 22.83C14.3836 22.4002 14.625 21.8173 14.625 21.2095C14.625 20.6017 14.3836 20.0188 13.9538 19.589C13.524 19.1592 12.9411 18.9177 12.3333 18.9177C11.7255 18.9177 11.1427 19.1592 10.7129 19.589C10.2831 20.0188 10.0417 20.6017 10.0417 21.2095C10.0417 21.8173 10.2831 22.4002 10.7129 22.83C11.1427 23.2598 11.7255 23.5013 12.3333 23.5013ZM32.9583 21.2095C32.9583 21.8173 32.7169 22.4002 32.2871 22.83C31.8574 23.2598 31.2745 23.5013 30.6667 23.5013C30.0589 23.5013 29.476 23.2598 29.0462 22.83C28.6164 22.4002 28.375 21.8173 28.375 21.2095C28.375 20.6017 28.6164 20.0188 29.0462 19.589C29.476 19.1592 30.0589 18.9177 30.6667 18.9177C31.2745 18.9177 31.8574 19.1592 32.2871 19.589C32.7169 20.0188 32.9583 20.6017 32.9583 21.2095ZM12.3333 30.3766C12.9411 30.3766 13.524 30.1351 13.9538 29.7054C14.3836 29.2756 14.625 28.6926 14.625 28.0848C14.625 27.477 14.3836 26.8941 13.9538 26.4643C13.524 26.0345 12.9411 25.793 12.3333 25.793C11.7255 25.793 11.1427 26.0345 10.7129 26.4643C10.2831 26.8941 10.0417 27.477 10.0417 28.0848C10.0417 28.6926 10.2831 29.2756 10.7129 29.7054C11.1427 30.1351 11.7255 30.3766 12.3333 30.3766ZM23.7917 28.0848C23.7917 28.6926 23.5502 29.2756 23.1205 29.7054C22.6907 30.1351 22.1078 30.3766 21.5 30.3766C20.8922 30.3766 20.3093 30.1351 19.8795 29.7054C19.4498 29.2756 19.2083 28.6926 19.2083 28.0848C19.2083 27.477 19.4498 26.8941 19.8795 26.4643C20.3093 26.0345 20.8922 25.793 21.5 25.793C22.1078 25.793 22.6907 26.0345 23.1205 26.4643C23.5502 26.8941 23.7917 27.477 23.7917 28.0848ZM30.6667 30.3766C31.2745 30.3766 31.8574 30.1351 32.2871 29.7054C32.7169 29.2756 32.9583 28.6926 32.9583 28.0848C32.9583 27.477 32.7169 26.8941 32.2871 26.4643C31.8574 26.0345 31.2745 25.793 30.6667 25.793C30.0589 25.793 29.476 26.0345 29.0462 26.4643C28.6164 26.8941 28.375 27.477 28.375 28.0848C28.375 28.6926 28.6164 29.2756 29.0462 29.7054C29.476 30.1351 30.0589 30.3766 30.6667 30.3766ZM14.625 34.9602C14.625 35.568 14.3836 36.1509 13.9538 36.5807C13.524 37.0105 12.9411 37.2519 12.3333 37.2519C11.7255 37.2519 11.1427 37.0105 10.7129 36.5807C10.2831 36.1509 10.0417 35.568 10.0417 34.9602C10.0417 34.3523 10.2831 33.7694 10.7129 33.3396C11.1427 32.9098 11.7255 32.6684 12.3333 32.6684C12.9411 32.6684 13.524 32.9098 13.9538 33.3396C14.3836 33.7694 14.625 34.3523 14.625 34.9602ZM21.5 37.2519C22.1078 37.2519 22.6907 37.0105 23.1205 36.5807C23.5502 36.1509 23.7917 35.568 23.7917 34.9602C23.7917 34.3523 23.5502 33.7694 23.1205 33.3396C22.6907 32.9098 22.1078 32.6684 21.5 32.6684C20.8922 32.6684 20.3093 32.9098 19.8795 33.3396C19.4498 33.7694 19.2083 34.3523 19.2083 34.9602C19.2083 35.568 19.4498 36.1509 19.8795 36.5807C20.3093 37.0105 20.8922 37.2519 21.5 37.2519ZM32.9583 34.9602C32.9583 35.568 32.7169 36.1509 32.2871 36.5807C31.8574 37.0105 31.2745 37.2519 30.6667 37.2519C30.0589 37.2519 29.476 37.0105 29.0462 36.5807C28.6164 36.1509 28.375 35.568 28.375 34.9602C28.375 34.3523 28.6164 33.7694 29.0462 33.3396C29.476 32.9098 30.0589 32.6684 30.6667 32.6684C31.2745 32.6684 31.8574 32.9098 32.2871 33.3396C32.7169 33.7694 32.9583 34.3523 32.9583 34.9602ZM12.3333 9.75061C11.7255 9.75061 11.1427 9.99206 10.7129 10.4219C10.2831 10.8516 10.0417 11.4346 10.0417 12.0424C10.0417 12.6502 10.2831 13.2331 10.7129 13.6629C11.1427 14.0927 11.7255 14.3342 12.3333 14.3342H30.6667C31.2745 14.3342 31.8574 14.0927 32.2871 13.6629C32.7169 13.2331 32.9583 12.6502 32.9583 12.0424C32.9583 11.4346 32.7169 10.8516 32.2871 10.4219C31.8574 9.99206 31.2745 9.75061 30.6667 9.75061H12.3333Z" fill="#242F65"/>
</svg>
