<svg width="120" height="110" viewBox="0 0 120 110" fill="none" xmlns="http://www.w3.org/2000/svg">
<path fill-rule="evenodd" clip-rule="evenodd" d="M119 86.8503L119.005 86.8652C120.655 89.0152 121.445 96.1602 110.13 94.8903C105.484 94.4364 100.917 93.3775 96.5447 91.7402C93.1276 90.4301 89.8592 88.7607 86.7947 86.7602C82.2532 88.5879 77.4427 89.6588 72.5547 89.9303C69.0665 94.6111 64.5321 98.4115 59.3137 101.028C54.0953 103.645 48.3374 105.005 42.4997 105C38.5609 105.004 34.6462 104.386 30.8997 103.17C28.6997 104.445 26.1997 105.69 23.4397 106.735C17.8397 108.855 13.1947 109.65 9.85473 109.885C7.35473 110.07 5.58973 109.94 4.71973 109.84C2.80973 109.62 1.09973 108.53 0.359729 106.7C0.0419437 105.908 -0.0679143 105.048 0.0406098 104.202C0.149134 103.356 0.472429 102.551 0.979729 101.865C2.23973 100.14 3.39973 98.3353 4.49973 96.5052C6.63973 92.9352 8.73973 89.0853 9.26973 84.8952C6.92502 80.4191 5.50914 75.5152 5.10714 70.4781C4.70513 65.441 5.32529 60.3746 6.93037 55.5832C8.53545 50.7918 11.0923 46.3742 14.4475 42.5957C17.8026 38.8172 21.8868 35.7558 26.4547 33.5953C28.054 27.5529 30.8946 21.91 34.7953 17.0261C38.696 12.1422 43.5714 8.12452 49.1107 5.22904C54.65 2.33356 60.7318 0.623809 66.9684 0.20874C73.2051 -0.206329 79.4598 0.682392 85.334 2.81826C91.2081 4.95414 96.5729 8.29032 101.086 12.6142C105.6 16.9381 109.163 22.1548 111.549 27.9319C113.935 33.7091 115.091 39.9199 114.944 46.1686C114.797 52.4173 113.35 58.5668 110.695 64.2253C109.745 72.8453 114.08 80.1003 118.995 86.8503H119ZM34.9997 45.0003C35.0025 39.7262 36.197 34.521 38.4942 29.7736C40.7914 25.0261 44.1318 20.8592 48.2657 17.5842C52.3997 14.3092 57.2203 12.0108 62.3674 10.8607C67.5145 9.7106 72.855 9.7386 77.9898 10.9426C83.1245 12.1466 87.9208 14.4954 92.0202 17.8136C96.1196 21.1318 99.4161 25.3335 101.663 30.1048C103.911 34.8761 105.051 40.0935 104.998 45.3673C104.945 50.641 103.702 55.8347 101.36 60.5603C101.12 61.043 100.959 61.5613 100.885 62.0952C99.7897 69.9703 101.635 77.1503 105.41 84.0452C99.949 82.7165 94.8019 80.3298 90.2597 77.0202C89.5301 76.491 88.6709 76.1688 87.7731 76.0878C86.8753 76.0068 85.9723 76.1701 85.1597 76.5602C79.8233 79.1248 73.9234 80.2936 68.0123 79.9574C62.1012 79.6212 56.3719 77.791 51.3607 74.6379C46.3494 71.4849 42.2199 67.1121 39.3585 61.9288C36.4971 56.7454 34.9974 50.9209 34.9997 45.0003ZM25.0197 46.2703C25.301 56.2174 28.87 65.7911 35.1689 73.4949C41.4678 81.1988 50.1417 86.5985 59.8347 88.8503C54.9383 92.8375 48.8143 95.0102 42.4997 95.0003C38.8497 95.0003 35.3847 94.2952 32.2147 93.0153C31.4726 92.7151 30.6693 92.5974 29.8723 92.6723C29.0753 92.7471 28.308 93.0122 27.6347 93.4452C25.4397 94.8602 22.8347 96.2702 19.8947 97.3852C18.1562 98.0481 16.3777 98.6008 14.5697 99.0403C16.2347 96.0052 17.9197 92.3903 18.6897 88.9902C19.0747 87.3053 19.2897 85.6702 19.3797 84.1352C19.4407 83.148 19.2076 82.1649 18.7097 81.3102C16.2702 77.1174 14.9898 72.3511 14.9997 67.5003C14.9997 58.9503 18.8997 51.3153 25.0197 46.2703Z" fill="white"/>
</svg>
