<svg width="110" height="110" viewBox="0 0 110 110" fill="none" xmlns="http://www.w3.org/2000/svg">
<path d="M55 0C24.75 0 0 24.75 0 55C0 85.25 24.75 110 55 110C85.25 110 110 85.25 110 55C110 24.75 85.25 0 55 0ZM90.75 36.4375C93.5 36.4375 95.5625 38.5 98.3125 38.5C96.25 41.25 87.3125 41.25 84.5625 37.8125C86.625 37.125 88 36.4375 90.75 36.4375ZM6.875 55C6.875 52.25 6.875 49.5 7.5625 46.0625C8.25 46.0625 8.9375 46.75 9.625 46.75C9.625 46.75 10.3125 47.4375 10.3125 48.125C10.3125 50.1875 12.375 51.5625 13.75 51.5625C19.25 52.25 21.3125 57.0625 26.125 58.4375C27.5 59.125 26.8125 60.5 26.125 61.875C22 67.375 25.4375 71.5 28.875 74.9375C32.3125 77.6875 32.3125 80.4375 33 84.5625C33 89.375 33.6875 94.875 35.75 99.6875C18.5625 91.4375 6.875 74.9375 6.875 55ZM55 103.125C50.1875 103.125 44.6875 102.438 40.5625 101.062C39.875 99.6875 39.875 98.3125 40.5625 96.9375C43.3125 91.4375 46.0625 86.625 49.5 81.8125C50.875 80.4375 52.25 79.0625 52.25 77C52.25 75.625 52.9375 73.5625 53.625 72.1875C55.6875 68.75 55 66.6875 52.25 66C46.75 64.625 44 59.8125 39.875 57.75C35.75 55.6875 31.625 54.3125 28.1875 56.375C26.8125 57.0625 24.75 57.75 24.75 55.6875C24.75 52.9375 21.3125 50.875 22 48.125C21.3125 48.125 20.625 48.125 19.9375 48.8125C19.25 49.5 18.5625 50.1875 17.1875 49.5C15.8125 48.125 16.5 46.75 16.5 45.375C17.1875 44 17.875 43.3125 19.25 42.625C22 41.9375 24.75 41.9375 26.125 45.375C28.1875 39.1875 32.3125 35.75 36.4375 33C36.4375 33 41.9375 28.1875 42.625 28.1875C43.3125 28.1875 44 29.5625 45.375 30.25C46.75 30.25 47.4375 30.25 47.4375 28.875C48.125 25.4375 46.0625 21.3125 43.3125 20.625C43.3125 19.9375 44 19.9375 44 19.9375C46.0625 19.25 48.8125 17.875 48.125 15.8125C48.125 13.0625 45.375 11.6875 42.625 11.6875C41.25 11.6875 39.875 11.6875 38.5 12.375C35.75 13.75 32.3125 15.125 28.1875 15.125C35.75 9.625 45.375 6.875 55 6.875C57.0625 6.875 58.4375 6.875 60.5 6.875C56.375 7.5625 52.25 8.9375 49.5 10.3125C53.625 11 54.3125 13.0625 52.9375 16.5C52.25 17.875 52.9375 19.25 54.3125 19.9375C55.6875 20.625 57.0625 20.625 57.75 19.25C59.125 17.1875 61.875 16.5 63.9375 15.8125C66.6875 15.125 68.75 13.75 70.8125 11C70.8125 10.3125 71.5 10.3125 72.1875 9.625C76.3125 11 80.4375 13.75 84.5625 16.5C83.875 16.5 83.875 17.1875 83.1875 17.1875C81.8125 18.5625 79.75 19.25 81.8125 22C82.5 23.375 81.8125 24.0625 81.125 24.75C79.75 25.4375 79.0625 24.75 78.375 24.0625C77.6875 23.375 77.6875 22 75.625 22C74.9375 23.375 72.875 24.0625 72.875 26.125C76.3125 26.125 75.625 28.875 76.3125 30.9375C72.1875 31.625 70.8125 33.6875 72.875 37.125C73.5625 38.5 72.1875 39.1875 71.5 39.875C68.75 44 66 46.75 66 51.5625C66 56.375 69.4375 61.1875 74.9375 60.5C81.125 59.8125 81.125 59.8125 83.1875 65.3125C83.1875 66 83.875 66.6875 83.875 67.375C84.5625 68.75 85.25 70.125 84.5625 71.5C82.5 77 85.25 81.125 87.3125 85.25C88 86.625 88.6875 87.3125 89.375 88C80.4375 97.625 68.75 103.125 55 103.125Z" fill="white"/>
</svg>
