<svg width="49" height="37" viewBox="0 0 49 37" fill="none" xmlns="http://www.w3.org/2000/svg">
<path fill-rule="evenodd" clip-rule="evenodd" d="M11.9147 26.4009C8.55142 23.51 6.15096 20.2084 5.02251 18.5013C6.14876 16.7941 8.55142 13.4925 11.9147 10.6017C15.3884 7.61807 19.677 5.25062 24.5 5.25062C29.323 5.25062 33.6116 7.61807 37.0853 10.6017C40.4486 13.4925 42.849 16.7941 43.9775 18.5013C42.8513 20.2084 40.4486 23.51 37.0853 26.4009C33.6116 29.3845 29.323 31.7519 24.5 31.7519C19.677 31.7519 15.3884 29.3845 11.9147 26.4009ZM24.5 0.83374C18.2018 0.83374 12.9217 3.91452 9.03726 7.25147C5.13955 10.6017 2.43434 14.3892 1.23301 16.2266C0.789203 16.9022 0.552734 17.6929 0.552734 18.5013C0.552734 19.3096 0.789203 20.1003 1.23301 20.776C2.43434 22.6134 5.13955 26.4009 9.03726 29.7511C12.9239 33.088 18.2018 36.1688 24.5 36.1688C30.7982 36.1688 36.0783 33.088 39.9628 29.7511C43.8605 26.4009 46.5657 22.6134 47.767 20.776C48.6746 19.3891 48.6746 17.6157 47.767 16.2266C46.5657 14.3892 43.8605 10.6017 39.9628 7.25147C36.0761 3.91452 30.7982 0.83374 24.5 0.83374ZM20.0833 18.5013C20.0833 17.3298 20.5487 16.2064 21.377 15.3781C22.2052 14.5497 23.3286 14.0844 24.5 14.0844C25.6714 14.0844 26.7948 14.5497 27.6231 15.3781C28.4513 16.2064 28.9167 17.3298 28.9167 18.5013C28.9167 19.6727 28.4513 20.7962 27.6231 21.6245C26.7948 22.4528 25.6714 22.9182 24.5 22.9182C23.3286 22.9182 22.2052 22.4528 21.377 21.6245C20.5487 20.7962 20.0833 19.6727 20.0833 18.5013ZM24.5 9.66751C22.1573 9.66751 19.9105 10.5982 18.2539 12.2549C16.5973 13.9115 15.6667 16.1584 15.6667 18.5013C15.6667 20.8441 16.5973 23.091 18.2539 24.7477C19.9105 26.4043 22.1573 27.335 24.5 27.335C26.8428 27.335 29.0895 26.4043 30.7461 24.7477C32.4027 23.091 33.3333 20.8441 33.3333 18.5013C33.3333 16.1584 32.4027 13.9115 30.7461 12.2549C29.0895 10.5982 26.8428 9.66751 24.5 9.66751Z" fill="#242F65"/>
</svg>
