<svg width="84" height="92" viewBox="0 0 84 92" fill="none" xmlns="http://www.w3.org/2000/svg">
<path fill-rule="evenodd" clip-rule="evenodd" d="M29.6667 0.16687C28.5617 0.167106 27.5021 0.606248 26.7208 1.3877L1.72083 26.3877C0.939378 27.1689 0.500236 28.2286 0.5 29.3335V79.3335C0.5 82.6488 1.81696 85.8282 4.16117 88.1724C6.50537 90.5166 9.68479 91.8335 13 91.8335H29.6667C30.7717 91.8335 31.8315 91.3946 32.6129 90.6132C33.3943 89.8318 33.8333 88.7719 33.8333 87.6669C33.8333 86.5618 33.3943 85.502 32.6129 84.7206C31.8315 83.9392 30.7717 83.5002 29.6667 83.5002H13C11.8949 83.5002 10.8351 83.0612 10.0537 82.2798C9.27232 81.4984 8.83333 80.4386 8.83333 79.3335V33.5002H29.6667C30.7717 33.5002 31.8315 33.0612 32.6129 32.2798C33.3943 31.4984 33.8333 30.4386 33.8333 29.3335V8.5002H63C64.1051 8.5002 65.1649 8.93919 65.9463 9.72059C66.7277 10.502 67.1667 11.5618 67.1667 12.6669V25.1669C67.1667 26.2719 67.6056 27.3317 68.387 28.1131C69.1684 28.8946 70.2283 29.3335 71.3333 29.3335C72.4384 29.3335 73.4982 28.8946 74.2796 28.1131C75.061 27.3317 75.5 26.2719 75.5 25.1669V12.6669C75.5 9.35166 74.183 6.17224 71.8388 3.82804C69.4946 1.48383 66.3152 0.16687 63 0.16687H29.6667ZM25.5 25.1669H14.725L25.5 14.3919V25.1669ZM82.3375 43.0835C80.3125 39.471 76.3958 37.9794 72.9583 37.4294C69.3667 36.8544 65.275 37.121 61.3917 37.9169C57.4958 38.721 53.5458 40.1127 50.2417 42.0044C47.0458 43.8377 43.8958 46.4544 42.4833 49.9794C40.9417 53.8294 41.1667 57.3794 42.7667 60.4877C44.2333 63.3335 46.6833 65.4669 48.875 67.1002C49.9917 67.9335 51.1583 68.7252 52.2333 69.446C50.3867 70.7322 48.7229 72.2628 47.2875 73.996C44.6458 77.2294 41.8833 82.7669 45.3125 88.0752C47.3708 91.2585 50.8 92.0335 53.625 91.7419C56.3958 91.4585 59.15 90.171 61.3875 88.4335C65.1708 85.4919 68.7625 80.0502 67.2042 73.8919C67.7125 73.9544 68.1833 74.046 68.6083 74.1669C70.375 74.6752 71.5042 75.6835 72.1042 77.5002C72.4591 78.5372 73.2084 79.3925 74.1897 79.8809C75.1709 80.3693 76.305 80.4514 77.3464 80.1094C78.3877 79.7674 79.2523 79.0289 79.7529 78.0538C80.2535 77.0788 80.3498 75.9457 80.0208 74.9002C78.5083 70.3002 75.1625 67.3794 70.9083 66.1585C68.0167 65.3252 64.8167 65.3002 61.5542 65.8377C61.1199 65.492 60.6781 65.1558 60.2292 64.8294C59.2167 64.0919 58.1458 63.371 57.1458 62.7044L56.9042 62.5419C55.8083 61.8085 54.7958 61.1252 53.8583 60.4252C51.9167 58.9752 50.7458 57.7752 50.175 56.6752C49.7417 55.8252 49.525 54.8002 50.2167 53.0835C50.6125 52.1002 51.8625 50.6794 54.3833 49.2377C56.8 47.8544 59.8833 46.7377 63.0708 46.0794C66.275 45.421 69.3167 45.2877 71.6417 45.6585C74.1167 46.0544 74.8958 46.8502 75.0708 47.1627C75.7125 48.3044 75.5333 48.8835 75.1792 49.4544C74.6333 50.3294 73.3708 51.3835 71.425 52.2585C69.6956 53.0494 67.8355 53.5155 65.9375 53.6335C65.5575 53.6514 65.1766 53.6333 64.8 53.5794C64.1249 52.8133 63.192 52.3218 62.1783 52.1981C61.1647 52.0745 60.141 52.3274 59.3016 52.9088C58.4621 53.4902 57.8654 54.3596 57.6247 55.352C57.384 56.3443 57.5161 57.3905 57.9958 58.2919C58.9958 60.171 60.725 61.0585 62.0458 61.4752C63.4083 61.9002 64.875 62.0044 66.2333 61.9585C69.2104 61.8046 72.132 61.0922 74.8458 59.8585C77.5667 58.6335 80.4792 56.6919 82.2458 53.8669C84.2042 50.7335 84.4792 46.896 82.3375 43.0835ZM53.7417 79.2669C55.1517 77.5704 56.8909 76.1771 58.8542 75.171C59.7625 77.3294 58.8792 79.8294 56.2708 81.8502C54.9792 82.8585 53.6583 83.3627 52.775 83.4502C52.6036 83.4733 52.43 83.4747 52.2583 83.4544C51.9583 82.8919 51.8167 81.621 53.7417 79.2669ZM52.1583 83.421C52.1625 83.421 52.1875 83.421 52.2208 83.4502C52.1708 83.4377 52.1542 83.4252 52.1583 83.421ZM64.4958 53.5044L64.5125 53.5127C64.5068 53.5103 64.5012 53.5075 64.4958 53.5044Z" fill="white"/>
</svg>
