<svg width="120" height="121" viewBox="0 0 120 121" fill="none" xmlns="http://www.w3.org/2000/svg">
<path d="M113.175 95.9246C114.938 94.5371 116.063 92.4071 116.063 90.0071C116.063 87.3221 114.652 84.9671 112.53 83.6396L112.5 39.9746L105 44.9996V83.6246C102.878 84.9746 101.49 87.3146 101.49 89.9771C101.49 92.3471 102.593 94.4621 104.31 95.8421L101.475 99.6071C99.0525 102.682 97.5675 106.59 97.5 110.842V120.007H103.575C103.59 120.007 103.605 120.007 103.612 120.007C106.695 120.007 109.29 117.892 110.01 115.027L112.492 105.007V120.007H119.992V110.932C119.925 106.665 118.44 102.757 115.988 99.6446L113.175 95.9246Z" fill="white"/>
<path d="M60 0L0 30L60 67.5L120 30L60 0Z" fill="white"/>
<path d="M60 75.0004L22.5 50.0254V62.8504C22.5 69.6754 44.55 90.0004 60 90.0004C75.45 90.0004 97.5 69.6754 97.5 62.8504V50.0254L60 75.0004Z" fill="white"/>
</svg>
