<svg width="127" height="85" viewBox="0 0 127 85" fill="none" xmlns="http://www.w3.org/2000/svg">
<path fill-rule="evenodd" clip-rule="evenodd" d="M84.6809 10.6248C80.4638 10.6248 76.4195 12.3039 73.4376 15.2928C70.4557 18.2817 68.7805 22.3355 68.7805 26.5624C68.7805 30.7893 70.4557 34.843 73.4376 37.8319C76.4195 40.8208 80.4638 42.4999 84.6809 42.4999C88.8979 42.4999 92.9423 40.8208 95.9242 37.8319C98.9061 34.843 100.581 30.7893 100.581 26.5624C100.581 22.3355 98.9061 18.2817 95.9242 15.2928C92.9423 12.3039 88.8979 10.6248 84.6809 10.6248ZM58.1802 26.5624C58.1802 22.2324 59.2363 17.9682 61.2564 14.1408C63.2766 10.3135 66.1995 7.03926 69.7708 4.6031C73.342 2.16695 77.4533 0.642788 81.7465 0.163346C86.0398 -0.316097 90.3849 0.263711 94.4035 1.85229C98.4221 3.44086 101.992 5.99004 104.803 9.27783C107.614 12.5656 109.581 16.4924 110.532 20.7161C111.482 24.9399 111.389 29.3325 110.259 33.5117C109.129 37.6908 106.996 41.5297 104.048 44.694C113.039 47.6258 120.813 53.4527 126.16 61.269C126.906 62.4333 127.169 63.8434 126.893 65.1993C126.618 66.5552 125.826 67.7498 124.685 68.5291C123.544 69.3084 122.145 69.6109 120.785 69.3722C119.426 69.1335 118.212 68.3724 117.404 67.2509C112.231 59.6434 102.797 53.1249 89.981 53.1249C69.6603 53.1249 58.1802 69.4556 58.1802 79.6875C58.1802 81.0965 57.6218 82.4477 56.6278 83.444C55.6339 84.4403 54.2857 85 52.8801 85C51.4744 85 50.1263 84.4403 49.1323 83.444C48.1383 82.4477 47.5799 81.0965 47.5799 79.6875C47.5799 76.0112 48.4173 72.0906 50.018 68.2284C49.6018 67.9582 49.2254 67.631 48.8997 67.2562C44.5482 62.2943 37.7959 58.4374 29.0294 58.4374C20.263 58.4374 13.5106 62.2943 9.15922 67.2562C8.21701 68.2594 6.92282 68.8564 5.54978 68.9213C4.17674 68.9862 2.83225 68.5139 1.80005 67.604C0.76784 66.6942 0.128663 65.4179 0.0174026 64.0447C-0.0938581 62.6714 0.331501 61.3086 1.20371 60.2437C4.33353 56.6733 8.12878 53.7499 12.3764 51.6374C8.98277 48.3177 6.65341 44.0594 5.68587 39.4063C4.71833 34.7533 5.15652 29.9168 6.94448 25.5146C8.73244 21.1124 11.789 17.3443 15.7237 14.6917C19.6585 12.039 24.2928 10.6222 29.0347 10.6222C33.7767 10.6222 38.411 12.039 42.3457 14.6917C46.2805 17.3443 49.337 21.1124 51.125 25.5146C52.913 29.9168 53.3511 34.7533 52.3836 39.4063C51.4161 44.0594 49.0867 48.3177 45.6931 51.6374C49.3701 53.4666 52.7121 55.9058 55.5778 58.8518C59.1776 54.3116 63.6558 50.5476 68.7434 47.7858C65.4601 45.3127 62.7962 42.1074 60.9628 38.4237C59.1294 34.74 58.1767 30.679 58.1802 26.5624ZM15.7791 34.5311C15.7791 31.0087 17.1751 27.6306 19.66 25.1398C22.145 22.6491 25.5152 21.2498 29.0294 21.2498C32.5436 21.2498 35.9139 22.6491 38.3988 25.1398C40.8838 27.6306 42.2798 31.0087 42.2798 34.5311C42.2798 38.0535 40.8838 41.4317 38.3988 43.9224C35.9139 46.4131 32.5436 47.8124 29.0294 47.8124C25.5152 47.8124 22.145 46.4131 19.66 43.9224C17.1751 41.4317 15.7791 38.0535 15.7791 34.5311Z" fill="white"/>
</svg>
