<svg width="49" height="47" viewBox="0 0 49 47" fill="none" xmlns="http://www.w3.org/2000/svg">
<path fill-rule="evenodd" clip-rule="evenodd" d="M23.5126 0.442499C23.8191 0.289332 24.157 0.209595 24.4997 0.209595C24.8423 0.209595 25.1803 0.289332 25.4868 0.442499L47.5701 11.4842C48.0145 11.7069 48.3708 12.073 48.5813 12.5234C48.7917 12.9737 48.8441 13.4819 48.7299 13.9657C48.6158 14.4495 48.3417 14.8806 47.9521 15.1893C47.5625 15.498 47.0801 15.6662 46.583 15.6667H2.41634C1.91925 15.6662 1.43688 15.498 1.04727 15.1893C0.657655 14.8806 0.383588 14.4495 0.269408 13.9657C0.155228 13.4819 0.207613 12.9737 0.418089 12.5234C0.628565 12.073 0.984819 11.7069 1.42922 11.4842L23.5126 0.442499ZM11.7708 11.2501H37.2285L24.4997 4.88567L11.7708 11.2501ZM11.2497 17.8751C11.8354 17.8751 12.3971 18.1077 12.8112 18.5219C13.2253 18.936 13.458 19.4977 13.458 20.0834V31.1251C13.458 31.7108 13.2253 32.2725 12.8112 32.6866C12.3971 33.1007 11.8354 33.3334 11.2497 33.3334C10.664 33.3334 10.1023 33.1007 9.68815 32.6866C9.274 32.2725 9.04134 31.7108 9.04134 31.1251V20.0834C9.04134 19.4977 9.274 18.936 9.68815 18.5219C10.1023 18.1077 10.664 17.8751 11.2497 17.8751ZM20.083 17.8751C20.6687 17.8751 21.2304 18.1077 21.6445 18.5219C22.0587 18.936 22.2913 19.4977 22.2913 20.0834V31.1251C22.2913 31.7108 22.0587 32.2725 21.6445 32.6866C21.2304 33.1007 20.6687 33.3334 20.083 33.3334C19.4973 33.3334 18.9356 33.1007 18.5215 32.6866C18.1073 32.2725 17.8747 31.7108 17.8747 31.1251V20.0834C17.8747 19.4977 18.1073 18.936 18.5215 18.5219C18.9356 18.1077 19.4973 17.8751 20.083 17.8751ZM28.9163 17.8751C29.502 17.8751 30.0637 18.1077 30.4779 18.5219C30.892 18.936 31.1247 19.4977 31.1247 20.0834V31.1251C31.1247 31.7108 30.892 32.2725 30.4779 32.6866C30.0637 33.1007 29.502 33.3334 28.9163 33.3334C28.3307 33.3334 27.769 33.1007 27.3548 32.6866C26.9407 32.2725 26.708 31.7108 26.708 31.1251V20.0834C26.708 19.4977 26.9407 18.936 27.3548 18.5219C27.769 18.1077 28.3307 17.8751 28.9163 17.8751ZM37.7497 17.8751C38.3354 17.8751 38.8971 18.1077 39.3112 18.5219C39.7253 18.936 39.958 19.4977 39.958 20.0834V31.1251C39.958 31.7108 39.7253 32.2725 39.3112 32.6866C38.8971 33.1007 38.3354 33.3334 37.7497 33.3334C37.164 33.3334 36.6023 33.1007 36.1881 32.6866C35.774 32.2725 35.5413 31.7108 35.5413 31.1251V20.0834C35.5413 19.4977 35.774 18.936 36.1881 18.5219C36.6023 18.1077 37.164 17.8751 37.7497 17.8751ZM4.62467 37.7501C4.62467 37.1644 4.85734 36.6027 5.27148 36.1886C5.68562 35.7744 6.24732 35.5417 6.83301 35.5417H42.1663C42.752 35.5417 43.3137 35.7744 43.7279 36.1886C44.142 36.6027 44.3747 37.1644 44.3747 37.7501C44.3747 38.3358 44.142 38.8975 43.7279 39.3116C43.3137 39.7258 42.752 39.9584 42.1663 39.9584H6.83301C6.24732 39.9584 5.68562 39.7258 5.27148 39.3116C4.85734 38.8975 4.62467 38.3358 4.62467 37.7501ZM0.208008 44.3751C0.208008 43.7894 0.440671 43.2277 0.854814 42.8136C1.26896 42.3994 1.83065 42.1667 2.41634 42.1667H46.583C47.1687 42.1667 47.7304 42.3994 48.1445 42.8136C48.5587 43.2277 48.7913 43.7894 48.7913 44.3751C48.7913 44.9608 48.5587 45.5225 48.1445 45.9366C47.7304 46.3508 47.1687 46.5834 46.583 46.5834H2.41634C1.83065 46.5834 1.26896 46.3508 0.854814 45.9366C0.440671 45.5225 0.208008 44.9608 0.208008 44.3751Z" fill="#242F65"/>
</svg>
