<svg width="41" height="51" viewBox="0 0 41 51" fill="none" xmlns="http://www.w3.org/2000/svg">
<path fill-rule="evenodd" clip-rule="evenodd" d="M17.975 8.15456C17.4833 10.645 16.6573 14.3818 13.6335 17.4057C13.3582 17.6811 13.0558 17.9712 12.7363 18.2809C9.92884 20.9877 5.74967 25.0196 5.74967 31.6475C5.74967 35.2443 7.29842 38.6541 9.68547 41.174C12.0873 43.7087 15.1626 45.169 18.0413 45.169H30.333C31.1983 45.169 31.9211 44.9478 32.3488 44.6601C32.7053 44.4241 32.7913 44.2176 32.7913 43.9398C32.7913 43.6645 32.7053 43.4555 32.3488 43.2195C31.9211 42.9343 31.1983 42.7106 30.333 42.7106H27.8747C27.2227 42.7106 26.5974 42.4516 26.1364 41.9905C25.6753 41.5295 25.4163 40.9042 25.4163 40.2521C25.4163 39.6001 25.6753 38.9748 26.1364 38.5137C26.5974 38.0527 27.2227 37.7937 27.8747 37.7937H31.5622C32.4275 37.7937 33.1503 37.5724 33.578 37.2848C33.9345 37.0488 34.0205 36.8423 34.0205 36.5644C34.0205 36.2891 33.9345 36.0801 33.578 35.8441C33.1503 35.5589 32.4275 35.3352 31.5622 35.3352H29.1038C28.4518 35.3352 27.8266 35.0762 27.3655 34.6152C26.9045 34.1541 26.6455 33.5288 26.6455 32.8768C26.6455 32.2247 26.9045 31.5994 27.3655 31.1384C27.8266 30.6773 28.4518 30.4183 29.1038 30.4183H32.7913C33.6567 30.4183 34.3794 30.1971 34.8072 29.9094C35.1636 29.6734 35.2497 29.4669 35.2497 29.1891C35.2497 28.9137 35.1636 28.7048 34.8072 28.4688C34.3794 28.1836 33.6567 27.9599 32.7913 27.9599H30.333C29.681 27.9599 29.0557 27.7008 28.5947 27.2398C28.1337 26.7787 27.8747 26.1534 27.8747 25.5014C27.8747 24.8494 28.1337 24.2241 28.5947 23.763C29.0557 23.302 29.681 23.043 30.333 23.043H32.7913C33.6567 23.043 34.3794 22.8217 34.8072 22.5341C35.1636 22.298 35.2497 22.0915 35.2497 21.8137C35.2497 21.5384 35.1636 21.3294 34.8072 21.0934C34.3794 20.8082 33.6567 20.5845 32.7913 20.5845H21.7288C21.338 20.5846 20.9528 20.4915 20.6051 20.3129C20.2574 20.1344 19.9573 19.8755 19.7297 19.5577C19.5021 19.24 19.3535 18.8725 19.2963 18.4859C19.2391 18.0992 19.2749 17.7045 19.4008 17.3344V17.332L19.4106 17.3074L19.4426 17.209L19.5729 16.7911C19.681 16.4223 19.831 15.8889 19.9859 15.2472C20.3597 13.7434 20.5886 12.2072 20.6693 10.6597C20.7332 8.97568 20.5095 7.68499 20.0596 6.89829C19.7941 6.43118 19.3934 6.01079 18.4617 5.87803C18.3437 6.28122 18.2355 6.83191 18.0782 7.63828L17.975 8.15456ZM24.9321 15.6676C25.232 14.2958 25.5171 12.5871 25.5835 10.8416C25.6573 8.83801 25.4606 6.44102 24.3298 4.46196C23.076 2.25919 20.8586 0.91687 17.7955 0.91687C16.8564 0.91687 15.9763 1.22664 15.2634 1.85108C14.6169 2.41653 14.2481 3.11964 14.0195 3.68509C13.6557 4.58734 13.4295 5.75757 13.2402 6.74586L13.1517 7.20068C12.6748 9.62717 12.0504 12.0365 10.1575 13.9295C9.94113 14.1458 9.67809 14.3966 9.37817 14.6793C6.61747 17.2951 0.833008 22.7799 0.833008 31.6475C0.833008 36.6554 2.97176 41.2355 6.11597 44.5544C9.24542 47.8586 13.545 50.0859 18.0413 50.0859H30.333C31.926 50.0859 33.6616 49.6926 35.0776 48.751C36.5649 47.7578 37.708 46.1205 37.708 43.9398C37.708 42.7868 37.3884 41.7887 36.8722 40.9528C38.0743 39.9448 38.9372 38.4624 38.9372 36.5644C38.9372 35.4114 38.6176 34.4108 38.1013 33.5799C39.3035 32.5719 40.1663 31.087 40.1663 29.1891C40.1663 27.6919 39.6304 26.4528 38.8118 25.5014C39.628 24.55 40.1663 23.3109 40.1663 21.8137C40.1663 19.6306 39.0232 17.9957 37.5359 17.0025C36.1199 16.0585 34.3843 15.6676 32.7913 15.6676H24.9321Z" fill="#242F65"/>
</svg>
