<svg width="110" height="83" viewBox="0 0 110 83" fill="none" xmlns="http://www.w3.org/2000/svg">
<path d="M86.4201 1.80589C81.9517 3.79951 75.0084 7.64927 67.1714 12.1177L29.6362 6.89307C28.9969 6.79682 28.2613 6.74183 27.512 6.74183C26.0615 6.74183 24.6659 6.94806 23.3391 7.33304L15.1928 9.64289C14.5053 9.64289 14.5053 10.3303 15.1928 10.6053L46.5408 24.3545C35.954 30.6791 26.5358 36.4537 22.4111 39.066C21.5174 39.6297 20.4312 39.9597 19.2625 39.9597C18.6163 39.9597 17.9976 39.8566 17.4201 39.671L9.21192 37.0724C8.6207 36.8593 7.93325 36.7355 7.21829 36.7355C6.50334 36.7355 5.81588 36.8593 5.18342 37.0862L0 39.2035L17.3239 53.6401C18.3688 54.5132 19.7231 55.0494 21.208 55.0494C22.0948 55.0494 22.9335 54.8569 23.6897 54.5201C31.9667 50.8215 53.7591 40.7847 69.9831 32.329C106.006 13.2177 109.993 9.91788 109.993 6.89307C109.993 2.14962 96.2439 -2.73132 86.4133 1.80589H86.4201Z" fill="white"/>
<path d="M0.00683594 75.6387H110V82.5132H0.00683594V75.6387Z" fill="white"/>
</svg>
