<svg width="45" height="45" viewBox="0 0 45 45" fill="none" xmlns="http://www.w3.org/2000/svg">
<path fill-rule="evenodd" clip-rule="evenodd" d="M41.7618 1.97826C40.5429 0.736201 38.8899 0.0384521 37.1663 0.0384521C35.4428 0.0384521 33.7898 0.736201 32.5708 1.97826L28.9308 5.68844L11.8012 23.1484C11.5237 23.4311 11.3268 23.7852 11.2313 24.1731L9.06468 33.0068C8.97373 33.3769 8.9784 33.7648 9.07824 34.1325C9.17808 34.5002 9.36967 34.8352 9.63435 35.105C9.89903 35.3748 10.2278 35.5701 10.5885 35.6719C10.9493 35.7736 11.3297 35.7784 11.6928 35.6857L20.3595 33.4772C20.74 33.38 21.0875 33.1792 21.3648 32.8964L38.371 15.5646L42.1345 11.7263C43.3531 10.4839 44.0376 8.79901 44.0376 7.04221C44.0376 5.28541 43.3531 3.60054 42.1345 2.35811L41.7618 1.97826ZM35.6345 5.10099C36.0408 4.68697 36.5918 4.45439 37.1663 4.45439C37.7409 4.45439 38.2919 4.68697 38.6982 5.10099L39.0708 5.48084C39.477 5.89499 39.7052 6.45661 39.7052 7.04221C39.7052 7.62781 39.477 8.18944 39.0708 8.60358L36.8673 10.8496L33.4982 7.27851L35.6345 5.10099ZM30.4345 10.4012L33.8037 13.9723L18.7237 29.3408L14.1433 30.5091L15.2895 25.8382L30.4345 10.4012ZM4.66634 13.6675C4.66634 13.0818 4.89461 12.5201 5.30094 12.1059C5.70727 11.6918 6.25837 11.4591 6.83301 11.4591H17.6663C18.241 11.4591 18.7921 11.2264 19.1984 10.8123C19.6047 10.3981 19.833 9.83637 19.833 9.25065C19.833 8.66494 19.6047 8.10321 19.1984 7.68905C18.7921 7.27489 18.241 7.04221 17.6663 7.04221H6.83301C5.1091 7.04221 3.4558 7.74024 2.23681 8.98272C1.01783 10.2252 0.333008 11.9104 0.333008 13.6675V37.9604C0.333008 39.7175 1.01783 41.4027 2.23681 42.6452C3.4558 43.8877 5.1091 44.5857 6.83301 44.5857H30.6663C32.3903 44.5857 34.0436 43.8877 35.2625 42.6452C36.4815 41.4027 37.1663 39.7175 37.1663 37.9604V26.9182C37.1663 26.3325 36.9381 25.7707 36.5317 25.3566C36.1254 24.9424 35.5743 24.7097 34.9997 24.7097C34.425 24.7097 33.8739 24.9424 33.4676 25.3566C33.0613 25.7707 32.833 26.3325 32.833 26.9182V37.9604C32.833 38.5461 32.6047 39.1078 32.1984 39.522C31.7921 39.9362 31.241 40.1688 30.6663 40.1688H6.83301C6.25837 40.1688 5.70727 39.9362 5.30094 39.522C4.89461 39.1078 4.66634 38.5461 4.66634 37.9604V13.6675Z" fill="#242F65"/>
</svg>
