<svg width="102" height="102" viewBox="0 0 102 102" fill="none" xmlns="http://www.w3.org/2000/svg">
<path d="M81.1325 71.3573C82.1313 70.5711 82.7688 69.3641 82.7688 68.0041C82.7688 66.4826 81.9698 65.1481 80.767 64.3958L80.75 39.6523L76.5 42.4998V64.3873C75.2973 65.1523 74.511 66.4783 74.511 67.9871C74.511 69.3301 75.1358 70.5286 76.109 71.3106L74.5025 73.4441C73.1297 75.1866 72.2883 77.4008 72.25 79.8106V85.0041H75.6925C75.701 85.0041 75.7095 85.0041 75.7137 85.0041C77.4605 85.0041 78.931 83.8056 79.339 82.1821L80.7458 76.5041V85.0041H84.9958V79.8616C84.9575 77.4433 84.116 75.2291 82.7263 73.4653L81.1325 71.3573Z" fill="black" fill-opacity="0.4"/>
<path d="M51 17L17 34L51 55.25L85 34L51 17Z" fill="black" fill-opacity="0.4"/>
<path d="M51 59.5002L29.75 45.3477V52.6152C29.75 56.4827 42.245 68.0002 51 68.0002C59.755 68.0002 72.25 56.4827 72.25 52.6152V45.3477L51 59.5002Z" fill="black" fill-opacity="0.4"/>
</svg>
