<svg width="32" height="20" viewBox="0 0 32 20" fill="none" xmlns="http://www.w3.org/2000/svg">
<path d="M8.55987 8H13.9999L11.6999 4.64C10.6159 3.19 8.97987 2.208 7.10987 2.002L5.99987 2V5.08C5.97787 5.206 5.96387 5.352 5.96387 5.502C5.96387 6.882 7.08387 8.002 8.46387 8.002C8.49787 8.002 8.53187 8.002 8.56387 8H8.55987Z" fill="#2575FC"/>
<path d="M25.9998 8V7.44C25.9998 7.434 25.9998 7.426 25.9998 7.42C25.9998 5.552 24.5018 4.034 22.6438 4H13.2598C14.2598 5.24 15.9998 8 15.9998 8H25.9998Z" fill="#2575FC"/>
<path d="M30 4.2C28.896 4.2 28 5.096 28 6.2V10H4V2C4 0.896 3.104 0 2 0C0.896 0 0 0.896 0 2V20H4V16H28V20H32V6.2C32 5.096 31.104 4.2 30 4.2Z" fill="#2575FC"/>
</svg>
