<svg width="23" height="32" viewBox="0 0 23 32" fill="none" xmlns="http://www.w3.org/2000/svg">
<path d="M15.1573 24.4C14.5573 24.4 14.1573 24.2 13.5573 24L11.1573 23L8.75724 24C8.35724 24.2 7.75724 24.4 7.15723 24.4C6.75723 24.4 6.55723 24.4 6.15723 24.2L5.15723 32L11.1573 28L17.1573 32L15.9573 24.2C15.7573 24.4 15.3573 24.4 15.1573 24.4Z" fill="#2575FC"/>
<path d="M20.957 11.8C20.757 11.4 20.757 10.8 20.957 10.4L22.157 8.00003C22.557 7.20003 22.157 6.20002 21.157 5.80002L18.557 4.80002C18.157 4.60002 17.757 4.20002 17.557 3.80001L16.557 1.2C16.357 0.400002 15.757 0 15.157 0C14.957 0 14.557 0 14.357 0.200001L11.757 1.40001C11.557 1.40001 11.357 1.40001 11.157 1.40001C10.957 1.40001 10.757 1.40001 10.557 1.2L7.95695 0.200001C7.75695 0 7.35695 0 7.15695 0C6.55695 0 5.95694 0.400001 5.55694 1L4.55694 3.80001C4.55694 4.20002 4.15694 4.60002 3.75694 4.80002L0.956926 5.80002C0.156923 6.00002 -0.243079 7.00003 0.156923 8.00003L1.35693 10.6C1.55693 11 1.55693 11.6 1.35693 12L0.156923 14.4001C-0.243079 15.2001 0.156922 16.2001 1.15693 16.6001L3.75694 17.6001C4.15694 17.8001 4.55694 18.2001 4.75694 18.6001L5.75694 21.2001C5.95694 22.0001 6.55695 22.4001 7.15695 22.4001C7.35695 22.4001 7.55695 22.4001 7.75695 22.2001L10.357 21.0001C10.557 21.0001 10.757 20.8001 10.957 20.8001C11.157 20.8001 11.357 20.8001 11.557 21.0001L14.157 22.2001C14.357 22.4001 14.557 22.4001 14.757 22.4001C15.357 22.4001 15.957 22.0001 16.357 21.4001L17.357 18.8001C17.557 18.4001 17.957 18.0001 18.357 17.8001L20.957 16.8001C21.757 16.4001 22.357 15.4001 21.957 14.6001L20.957 11.8ZM11.157 19.2001C6.75695 19.2001 3.15693 15.6001 3.15693 11.2C3.15693 6.80002 6.75695 3.20001 11.157 3.20001C15.557 3.20001 19.157 6.80002 19.157 11.2C19.157 15.6001 15.557 19.2001 11.157 19.2001Z" fill="#2575FC"/>
<path d="M17.1573 11.1999C17.1573 14.5139 14.4713 17.1999 11.1573 17.1999C7.84324 17.1999 5.15723 14.5139 5.15723 11.1999C5.15723 7.88584 7.84324 5.19983 11.1573 5.19983C14.4713 5.19983 17.1573 7.88584 17.1573 11.1999Z" fill="#2575FC"/>
</svg>
