<svg width="28" height="27" viewBox="0 0 28 27" fill="none" xmlns="http://www.w3.org/2000/svg">
<path d="M22.0056 14.205C21.0823 14.0719 20.2496 13.8294 19.4727 13.4907C23.1379 10.3303 27.1795 7.53379 27.2318 7.50009L27.406 7.38217L27.5105 7.19686C27.8188 6.57859 28 5.85418 28 5.08767C28 3.56979 27.291 2.21196 26.1778 1.30729C25.2667 0.495289 24.0543 0 22.7233 0C21.7861 0 20.9064 0.24596 20.1521 0.673863L19.9326 0.897922C17.1836 4.57216 14.3893 7.80333 11.3826 10.8357C8.18416 13.5952 4.64083 16.2182 0.898899 18.5717L0.21253 18.9895V19.3769C0.0783923 19.9059 0 20.5141 0 21.1391C0 22.7732 0.529584 24.2894 1.43197 25.5344C2.31519 26.4272 3.58688 27 4.99446 27C5.09028 27 5.18435 26.9966 5.27668 26.9916C5.32197 26.9949 5.38991 26.9966 5.45785 26.9966C6.67903 26.9966 7.75213 26.3902 8.37404 25.472C8.80085 24.9531 11.9714 21.0784 15.351 17.5407C15.8178 18.3223 16.1802 19.2304 16.3857 20.194C16.4415 20.6135 16.4659 21.0296 16.4659 21.4524C16.4659 22.8389 16.1906 24.1647 15.6907 25.3794L18.626 21.9376L20.9429 23.6223C20.8715 21.6445 20.5196 19.7711 19.9256 18.0022C19.5301 17.3014 18.9814 16.5787 18.3316 15.9571C19.0389 16.54 19.8489 17.0403 20.7217 17.4295C22.3592 17.9989 24.1866 18.3931 26.0803 18.5616L24.4271 16.4288L27.9112 13.5143C26.4653 13.9742 24.8016 14.2404 23.0735 14.2404C22.6972 14.2404 22.3244 14.2286 21.9551 14.2033L22.0056 14.205ZM21.2217 2.02496C21.6502 1.81775 22.1554 1.69813 22.6885 1.69813C23.57 1.69813 24.3713 2.02833 24.9688 2.56742C25.7371 3.16716 26.2248 4.07856 26.2248 5.10114C26.2248 5.50883 26.1465 5.89967 26.0054 6.26019C25.1587 6.77738 21.9185 9.15274 18.7828 11.8313C18.687 10.9536 18.2567 10.1888 17.6191 9.64466C17.1313 9.24203 16.499 8.99775 15.8091 8.99775C15.6907 8.99775 15.5739 9.00449 15.459 9.01797C18.1905 6.03444 20.6468 2.7999 21.2217 2.02496ZM4.74187 19.9329C4.86904 19.8469 5.02756 19.7947 5.19828 19.7947C5.22267 19.7947 5.24532 19.7964 5.26796 19.7981H5.38642C5.69825 19.8857 5.96827 20.0373 6.18951 20.2378L4.67218 21.4491C4.53108 21.1711 4.4492 20.846 4.4492 20.5006C4.4492 20.413 4.45443 20.3271 4.46488 20.2428C4.51191 20.1131 4.61121 20.0003 4.74012 19.9346L4.74187 19.9329ZM7.00653 24.4646C6.70167 24.9801 6.13725 25.3204 5.48921 25.3204C5.40907 25.3204 5.33242 25.3153 5.25577 25.3052C5.17564 25.3153 5.07111 25.3187 4.96485 25.3187C4.06769 25.3187 3.25589 24.9666 2.66882 24.3955C2.03297 23.4858 1.65321 22.3638 1.65321 21.1576C1.65321 20.7348 1.70024 20.3237 1.78735 19.9278L3.01723 19.1579C2.85348 19.3938 2.73154 19.6701 2.67057 19.9682C2.65837 20.0963 2.65314 20.2277 2.65314 20.3625C2.65314 21.444 3.00504 22.4464 3.60256 23.2668L4.21925 24.0081L7.18074 21.6495C7.29571 22.0016 7.36191 22.4076 7.36191 22.8288C7.36191 23.4201 7.23126 23.9828 6.99608 24.4882L7.00653 24.4646ZM8.5047 20.3372C7.90369 19.3264 6.95601 18.5632 5.82194 18.1909C5.69825 18.1707 5.59547 18.164 5.49095 18.164C5.38642 18.164 5.28364 18.1707 5.1826 18.1808C5.10247 18.169 4.99795 18.1623 4.88994 18.1623C4.78193 18.1623 4.67741 18.169 4.57289 18.1808C7.1668 16.4658 9.3914 14.8065 11.5202 13.0392C12.2135 13.1589 12.9347 13.4604 13.4904 13.9372C14.0078 14.4645 14.3266 15.1821 14.3266 15.9739C14.3266 16.0278 14.3249 16.0801 14.3232 16.1323C12.3372 18.1977 10.4035 20.4046 9.09699 22.0387C9.00292 21.4002 8.78865 20.8274 8.47508 20.3153L8.5047 20.3372Z" fill="#33CA94"/>
</svg>
