<svg width="80" height="80" viewBox="0 0 80 80" fill="none" xmlns="http://www.w3.org/2000/svg">
<path d="M40.0002 63.3333C27.0002 63.3333 16.6668 52.9999 16.6668 39.9999C16.6668 26.9999 27.0002 16.6666 40.0002 16.6666C53.0002 16.6666 63.3335 26.9999 63.3335 39.9999C63.3335 52.9999 53.0002 63.3333 40.0002 63.3333ZM40.0002 66.6666C54.6668 66.6666 66.6668 54.6666 66.6668 39.9999C66.6668 25.3333 54.6668 13.3333 40.0002 13.3333C25.3335 13.3333 13.3335 25.3333 13.3335 39.9999C13.3335 54.6666 25.3335 66.6666 40.0002 66.6666Z" fill="#C4C4C4"/>
<path d="M45.3335 36.6669L39.3335 30.6669L44.0002 26.0002L58.0002 40.0002L44.0002 54.0002L39.3335 49.3336L45.3335 43.3336H23.3335V36.6669H45.3335Z" fill="#767B92"/>
</svg>
