<svg width="80" height="80" viewBox="0 0 80 80" fill="none" xmlns="http://www.w3.org/2000/svg">
<path d="M39.9998 16.6667C52.9998 16.6667 63.3332 27.0001 63.3332 40.0001C63.3332 53.0001 52.9998 63.3334 39.9998 63.3334C26.9998 63.3334 16.6665 53.0001 16.6665 40.0001C16.6665 27.0001 26.9998 16.6667 39.9998 16.6667ZM39.9998 13.3334C25.3332 13.3334 13.3332 25.3334 13.3332 40.0001C13.3332 54.6667 25.3332 66.6667 39.9998 66.6667C54.6665 66.6667 66.6665 54.6667 66.6665 40.0001C66.6665 25.3334 54.6665 13.3334 39.9998 13.3334Z" fill="#C4C4C4"/>
<path d="M34.6665 43.3331L40.6665 49.3331L35.9998 53.9998L21.9998 39.9998L35.9998 25.9998L40.6665 30.6664L34.6665 36.6664L56.6665 36.6664L56.6665 43.3331L34.6665 43.3331Z" fill="#767B92"/>
</svg>
