<svg width="32" height="32" viewBox="0 0 32 32" fill="none" xmlns="http://www.w3.org/2000/svg">
<path d="M30.1783 25.5784C30.6483 25.2084 30.9482 24.6405 30.9482 24.0005C30.9482 23.2845 30.5723 22.6566 30.0063 22.3026L29.9983 10.6593L27.9984 11.9992V22.2986C27.4325 22.6586 27.0625 23.2825 27.0625 23.9925C27.0625 24.6245 27.3565 25.1884 27.8144 25.5564L27.0585 26.5604C26.4125 27.3803 26.0165 28.4222 25.9985 29.5562V32H27.6184C27.6224 32 27.6264 32 27.6284 32C28.4504 32 29.1423 31.4361 29.3343 30.6721L29.9963 28.0003V32H31.9962V29.5802C31.9782 28.4422 31.5822 27.4003 30.9282 26.5704L30.1783 25.5784Z" fill="#2575FC"/>
<path d="M15.999 0L0 7.99952L15.999 17.9989L31.9981 7.99952L15.999 0Z" fill="#2575FC"/>
<path d="M15.9992 19.9989L5.99976 13.3393V16.7591C5.99976 18.579 11.8794 23.9987 15.9992 23.9987C20.1189 23.9987 25.9986 18.579 25.9986 16.7591V13.3393L15.9992 19.9989Z" fill="#2575FC"/>
</svg>
