<svg width="27" height="32" viewBox="0 0 27 32" fill="none" xmlns="http://www.w3.org/2000/svg">
<path d="M2.01914 0V2.01511H0.971285C0.43728 2.01511 0.00403018 2.44836 0.00403018 2.98237C0.00201506 3.00655 0 3.03476 0 3.06297C0 3.59698 0.433249 4.03023 0.967254 4.03023C0.96927 4.03023 0.96927 4.03023 0.971285 4.03023H2.01914V6.04534H0.971285C0.43728 6.04534 0.00403018 6.47859 0.00403018 7.01259C0.00201506 7.03678 0 7.06499 0 7.0932C0 7.6272 0.433249 8.06045 0.967254 8.06045C0.96927 8.06045 0.96927 8.06045 0.971285 8.06045H2.01914V10.0756H0.971285C0.43728 10.0756 0.00403018 10.5088 0.00403018 11.0428C0.00201506 11.067 0 11.0952 0 11.1234C0 11.6574 0.433249 12.0907 0.967254 12.0907C0.96927 12.0907 0.96927 12.0907 0.971285 12.0907H2.01914V14.1058H0.971285C0.43728 14.1058 0.00403018 14.539 0.00403018 15.073C0.00201506 15.0972 0 15.1254 0 15.1537C0 15.6877 0.433249 16.1209 0.967254 16.1209C0.96927 16.1209 0.96927 16.1209 0.971285 16.1209H2.01914V18.136H0.971285C0.43728 18.136 0.00403018 18.5693 0.00403018 19.1033C0.00403018 19.6373 0.43728 20.0705 0.971285 20.0705H2.01914V22.0856H0.971285C0.43728 22.0856 0.00403018 22.5189 0.00403018 23.0529C0.00403018 23.5869 0.43728 24.0202 0.971285 24.0202H2.01914V26.0353H0.971285C0.43728 26.0353 0.00403018 26.4685 0.00403018 27.0025C0.00403018 27.5365 0.43728 27.9698 0.971285 27.9698H2.01914V32H26.2005V0H2.01914V0ZM5.04181 28.2116C4.48564 28.2116 4.03426 27.7602 4.03426 27.204C4.03426 26.6479 4.48564 26.1965 5.04181 26.1965C5.59798 26.1965 6.04937 26.6479 6.04937 27.204C6.04937 27.7602 5.59798 28.2116 5.04181 28.2116ZM5.04181 24.1814C4.48564 24.1814 4.03426 23.73 4.03426 23.1738C4.03426 22.6176 4.48564 22.1662 5.04181 22.1662C5.59798 22.1662 6.04937 22.6176 6.04937 23.1738C6.04937 23.73 5.59798 24.1814 5.04181 24.1814ZM5.04181 20.1511C4.48564 20.1511 4.03426 19.6997 4.03426 19.1436C4.03426 18.5874 4.48564 18.136 5.04181 18.136C5.59798 18.136 6.04937 18.5874 6.04937 19.1436C6.04937 19.6997 5.59798 20.1511 5.04181 20.1511ZM5.04181 16.1209C4.48564 16.1209 4.03426 15.6695 4.03426 15.1133C4.03426 14.5572 4.48564 14.1058 5.04181 14.1058C5.59798 14.1058 6.04937 14.5572 6.04937 15.1133C6.04937 15.6695 5.59798 16.1209 5.04181 16.1209ZM5.04181 12.0907C4.48564 12.0907 4.03426 11.6393 4.03426 11.0831C4.03426 10.527 4.48564 10.0756 5.04181 10.0756C5.59798 10.0756 6.04937 10.527 6.04937 11.0831C6.04937 11.6393 5.59798 12.0907 5.04181 12.0907ZM5.04181 8.06045C4.48564 8.06045 4.03426 7.60907 4.03426 7.0529C4.03426 6.49673 4.48564 6.04534 5.04181 6.04534C5.59798 6.04534 6.04937 6.49673 6.04937 7.0529C6.04937 7.60907 5.59798 8.06045 5.04181 8.06045ZM5.04181 4.03023C4.48564 4.03023 4.03426 3.57884 4.03426 3.02267C4.03426 2.4665 4.48564 2.01511 5.04181 2.01511C5.59798 2.01511 6.04937 2.4665 6.04937 3.02267C6.04937 3.57884 5.59798 4.03023 5.04181 4.03023ZM22.1703 12.0907H10.0796V6.04534H22.1703V12.0907Z" fill="#2575FC"/>
</svg>
