<svg width="35" height="35" viewBox="0 0 35 35" fill="none" xmlns="http://www.w3.org/2000/svg">
<path d="M26.2502 7.2915V11.6665H21.8752V7.2915H13.1252V11.6665H8.75016V7.2915H5.8335V29.1665H29.1668V7.2915H26.2502ZM10.2085 27.7082H7.29183V24.7915H10.2085V27.7082ZM10.2085 23.3332H7.29183V20.4165H10.2085V23.3332ZM10.2085 18.9582H7.29183V16.0415H10.2085V18.9582ZM14.5835 27.7082H11.6668V24.7915H14.5835V27.7082ZM14.5835 23.3332H11.6668V20.4165H14.5835V23.3332ZM14.5835 18.9582H11.6668V16.0415H14.5835V18.9582ZM18.9585 27.7082H16.0418V24.7915H18.9585V27.7082ZM18.9585 23.3332H16.0418V20.4165H18.9585V23.3332ZM18.9585 18.9582H16.0418V16.0415H18.9585V18.9582ZM23.3335 27.7082H20.4168V24.7915H23.3335V27.7082ZM23.3335 23.3332H20.4168V20.4165H23.3335V23.3332ZM23.3335 18.9582H20.4168V16.0415H23.3335V18.9582ZM27.7085 27.7082H24.7918V24.7915H27.7085V27.7082ZM27.7085 23.3332H24.7918V20.4165H27.7085V23.3332ZM27.7085 18.9582H24.7918V16.0415H27.7085V18.9582Z" fill="#1C2E45" fill-opacity="0.6"/>
<path d="M10.2085 5.8335H11.6668V10.2085H10.2085V5.8335Z" fill="#1C2E45" fill-opacity="0.6"/>
<path d="M23.3335 5.8335H24.7918V10.2085H23.3335V5.8335Z" fill="#1C2E45" fill-opacity="0.6"/>
</svg>
