<svg width="32" height="24" viewBox="0 0 32 24" fill="none" xmlns="http://www.w3.org/2000/svg">
<path d="M25.0001 5.80005C22.2001 5.80005 20.0001 7.40004 19.8001 7.60004L22.2001 10.8C22.2001 10.8 23.6001 9.80003 25.0001 9.80003C27.8001 9.80003 28.0001 12.2 28.0001 13C27.2001 12.8 25.8001 12.4 24.0001 12.8C21.2001 13.4 18.4001 16.8 19.8001 20.6C21.2001 24.2 26.0001 24.8 28.0001 21.8V23.8H32.0001V13.2C32.0001 7.80004 28.2001 5.80005 25.0001 5.80005ZM23.0001 18.8C22.8001 15 26.0001 15 28.0001 15.2V17.2C28.0001 19.6 23.4001 21.8 23.0001 18.8Z" fill="#2575FC"/>
<path d="M13.8 23.9999H17.9999L11.6 0H6.19998L0 23.9999H4.19999L6.19998 15.9999H11.6L13.8 23.9999ZM7.19997 12L8.79997 5.59998L10.6 12H7.19997Z" fill="#2575FC"/>
</svg>
