<svg width="30" height="30" viewBox="0 0 30 30" fill="none" xmlns="http://www.w3.org/2000/svg">
<path id="Vector" fill-rule="evenodd" clip-rule="evenodd" d="M0.333496 1.66671C0.333496 1.31309 0.473979 0.973947 0.724039 0.723898C0.9741 0.47385 1.31326 0.333374 1.66689 0.333374H3.02029C4.24606 0.333286 5.45984 0.574625 6.59232 1.04361C7.72481 1.5126 8.75383 2.20005 9.62062 3.06671L13.3275 6.77471L22.8959 3.05471C23.6196 2.7733 24.4094 2.70856 25.1692 2.86837C25.929 3.02818 26.6259 3.40564 27.1748 3.95471L29.2776 6.05737C29.4232 6.2029 29.5331 6.38015 29.5987 6.57525C29.6644 6.77034 29.6839 6.97799 29.6559 7.18191C29.6279 7.38584 29.553 7.5805 29.4372 7.75066C29.3213 7.92082 29.1677 8.06185 28.9882 8.16271L19.7518 13.3574L22.8613 16.9107L25.8801 16.48C26.5489 16.3845 27.2308 16.5018 27.8293 16.8154C28.4277 17.129 28.9123 17.6229 29.2144 18.2272C29.5165 18.8315 29.6207 19.5155 29.5124 20.1824C29.4041 20.8492 29.0887 21.4651 28.6109 21.9427L21.9439 28.6094C21.4662 29.0872 20.8503 29.4026 20.1835 29.5109C19.5166 29.6192 18.8325 29.5149 18.2282 29.2128C17.6239 28.9108 17.13 28.4262 16.8164 27.8278C16.5028 27.2294 16.3854 26.5475 16.481 25.8787L16.9116 22.86L13.3581 19.7507L8.16321 28.9867C8.0624 29.1664 7.92131 29.3203 7.75103 29.4362C7.58074 29.5522 7.3859 29.6272 7.18178 29.6552C6.97766 29.6833 6.76982 29.6636 6.57457 29.5978C6.37932 29.532 6.20197 29.4219 6.05644 29.276L3.95634 27.1734C3.40725 26.6245 3.02977 25.9276 2.86995 25.1679C2.71013 24.4081 2.77488 23.6183 3.0563 22.8947L6.77648 13.328L3.06963 9.61871C2.20245 8.75218 1.51447 7.72331 1.045 6.59087C0.575529 5.45843 0.333758 4.2446 0.333496 3.01871V1.66671ZM3.00029 3.00004V3.02004C3.00032 4.78782 3.70249 6.4832 4.95239 7.73337L9.2766 12.0574C9.45972 12.2404 9.5856 12.4727 9.63887 12.7261C9.69215 12.9794 9.67052 13.2428 9.57662 13.484L5.54042 23.8614C5.44652 24.1026 5.42489 24.366 5.47816 24.6193C5.53144 24.8727 5.65732 25.105 5.84043 25.288L6.70048 26.148L11.8381 17.0134C11.9353 16.8406 12.0699 16.6917 12.232 16.5775C12.394 16.4633 12.5795 16.3867 12.775 16.3532C12.9704 16.3197 13.1708 16.3303 13.3617 16.384C13.5525 16.4378 13.729 16.5335 13.8782 16.664L19.2118 21.3307C19.3788 21.4767 19.5067 21.662 19.584 21.8699C19.6613 22.0778 19.6855 22.3018 19.6544 22.5214L19.1211 26.2547C19.1043 26.3696 19.1242 26.4868 19.1778 26.5898C19.2315 26.6927 19.3163 26.7761 19.4202 26.8281C19.524 26.8801 19.6415 26.898 19.7561 26.8793C19.8707 26.8607 19.9765 26.8063 20.0585 26.724L26.7255 20.0574C26.8077 19.9754 26.8621 19.8697 26.8808 19.7551C26.8994 19.6405 26.8815 19.5229 26.8295 19.4191C26.7775 19.3153 26.6942 19.2305 26.5912 19.1768C26.4883 19.1231 26.371 19.1033 26.2561 19.12L22.5226 19.6534C22.3027 19.6847 22.0786 19.6606 21.8704 19.5833C21.6622 19.506 21.4766 19.3779 21.3305 19.2107L16.6636 13.8774C16.5331 13.7281 16.4375 13.5516 16.3839 13.3607C16.3302 13.1698 16.3198 12.9693 16.3534 12.7739C16.3869 12.5785 16.4637 12.393 16.5781 12.231C16.6924 12.069 16.8414 11.9345 17.0143 11.8374L26.1481 6.70004L25.2894 5.84004C25.1064 5.65693 24.874 5.53106 24.6207 5.47779C24.3673 5.42451 24.1039 5.44615 23.8626 5.54004L13.4835 9.57604C13.2422 9.66994 12.9788 9.69157 12.7255 9.63829C12.4721 9.58502 12.2398 9.45915 12.0567 9.27604L7.73386 4.95204C6.48363 3.7022 4.78816 3.00006 3.02029 3.00004H3.00029Z" fill="#2575FC"/>
</svg>
