<svg width="17" height="16" viewBox="0 0 17 16" fill="none" xmlns="http://www.w3.org/2000/svg">
<path d="M7.4458 0C3.61569 0 0.5 3.11569 0.5 6.9458C0.5 10.7759 3.61569 13.8916 7.4458 13.8916C8.65635 13.8916 9.80737 13.5741 10.7996 13.0184C10.8523 13.109 10.912 13.1953 10.9782 13.2764L12.9627 15.3204C13.146 15.5266 13.3694 15.6932 13.6194 15.8099C13.8693 15.9266 14.1405 15.991 14.4162 15.9991C14.692 16.0072 14.9664 15.9589 15.2228 15.8571C15.4792 15.7553 15.7121 15.6022 15.9071 15.4071C16.1022 15.2121 16.2553 14.9792 16.3571 14.7228C16.4589 14.4664 16.5072 14.192 16.4991 13.9162C16.491 13.6405 16.4266 13.3693 16.3099 13.1194C16.1932 12.8694 16.0266 12.646 15.8204 12.4627L13.7764 10.4782C13.6953 10.412 13.609 10.3523 13.5184 10.2996C14.0542 9.30737 14.3916 8.15635 14.3916 6.9458C14.3916 3.11569 11.2759 0 7.4458 0ZM7.4458 1.98451C10.2043 1.98451 12.4071 4.18732 12.4071 6.9458C12.4071 8.11666 12.0102 9.20815 11.3553 10.0416C11.3354 10.0615 11.3156 10.0813 11.2958 10.1012C11.2554 10.1197 11.2157 10.1395 11.1767 10.1607C10.9777 10.313 10.8094 10.5015 10.6806 10.7164C9.80737 11.4506 8.6762 11.8872 7.4458 11.8872C4.68732 11.8872 2.48451 9.68443 2.48451 6.92595C2.48451 4.16748 4.68732 1.96467 7.4458 1.96467V1.98451Z" fill="#9F9FA8"/>
</svg>
