<svg width="18" height="16" viewBox="0 0 18 16" fill="none" xmlns="http://www.w3.org/2000/svg">
<path d="M7.93623 0C3.9213 0 0.655273 3.11569 0.655273 6.9458C0.655273 10.7759 3.9213 13.8916 7.93623 13.8916C9.20519 13.8916 10.4118 13.5741 11.4519 13.0184C11.5071 13.109 11.5697 13.1953 11.6391 13.2764L13.7194 15.3204C13.9115 15.5266 14.1457 15.6932 14.4077 15.8099C14.6697 15.9266 14.954 15.991 15.243 15.9991C15.532 16.0072 15.8198 15.9589 16.0885 15.8571C16.3573 15.7553 16.6014 15.6022 16.8058 15.4071C17.0103 15.2121 17.1708 14.9792 17.2775 14.7228C17.3842 14.4664 17.4349 14.192 17.4264 13.9162C17.4179 13.6405 17.3504 13.3693 17.2281 13.1194C17.1057 12.8694 16.9311 12.646 16.715 12.4627L14.5723 10.4782C14.4872 10.412 14.3968 10.3523 14.3019 10.2996C14.8635 9.30737 15.2172 8.15635 15.2172 6.9458C15.2172 3.11569 11.9512 0 7.93623 0ZM7.93623 1.98451C10.8278 1.98451 13.1369 4.18732 13.1369 6.9458C13.1369 8.11666 12.7209 9.20815 12.0344 10.0416C12.0136 10.0615 11.9928 10.0813 11.972 10.1012C11.9297 10.1197 11.888 10.1395 11.8471 10.1607C11.6386 10.313 11.4621 10.5015 11.3271 10.7164C10.4118 11.4506 9.226 11.8872 7.93623 11.8872C5.04465 11.8872 2.73555 9.68443 2.73555 6.92595C2.73555 4.16748 5.04465 1.96467 7.93623 1.96467V1.98451Z" fill="#2575FC"/>
</svg>
