<svg width="98" height="98" viewBox="0 0 98 98" fill="none" xmlns="http://www.w3.org/2000/svg">
<path d="M49 20.4167C64.925 20.4167 77.5834 33.075 77.5834 49C77.5834 64.925 64.925 77.5834 49 77.5834C33.075 77.5834 20.4167 64.925 20.4167 49C20.4167 33.075 33.075 20.4167 49 20.4167ZM49 16.3334C31.0334 16.3334 16.3334 31.0334 16.3334 49C16.3334 66.9667 31.0334 81.6667 49 81.6667C66.9667 81.6667 81.6667 66.9667 81.6667 49C81.6667 31.0334 66.9667 16.3334 49 16.3334Z" fill="black" fill-opacity="0.4"/>
<path d="M49 70.2334C40.8333 70.2334 33.4833 65.3334 30.2167 57.5751L33.8917 55.9418C36.3417 62.0668 42.4667 65.7418 49 65.7418C55.5333 65.7418 61.6583 61.6584 64.1083 55.9418L67.7833 57.5751C64.5167 65.7418 57.1667 70.2334 49 70.2334Z" fill="black" fill-opacity="0.4"/>
<path d="M44.9167 40.8333C44.9167 43.0873 43.0873 44.9167 40.8333 44.9167C38.5793 44.9167 36.75 43.0873 36.75 40.8333C36.75 38.5793 38.5793 36.75 40.8333 36.75C43.0873 36.75 44.9167 38.5793 44.9167 40.8333Z" fill="black" fill-opacity="0.4"/>
<path d="M61.25 40.8333C61.25 43.0873 59.4207 44.9167 57.1667 44.9167C54.9127 44.9167 53.0834 43.0873 53.0834 40.8333C53.0834 38.5793 54.9127 36.75 57.1667 36.75C59.4207 36.75 61.25 38.5793 61.25 40.8333Z" fill="black" fill-opacity="0.4"/>
</svg>
