<svg width="22" height="19" viewBox="0 0 22 19" fill="none" xmlns="http://www.w3.org/2000/svg">
<path fill-rule="evenodd" clip-rule="evenodd" d="M13.849 2.65799C13.3922 2.6578 12.941 2.75904 12.528 2.95441C12.115 3.14977 11.7506 3.43439 11.461 3.78771C11.1714 4.14103 10.9639 4.55424 10.8534 4.99752C10.7429 5.44079 10.7321 5.90307 10.822 6.35099C10.8529 6.50619 10.8466 6.66651 10.8035 6.81879C10.7604 6.97106 10.6818 7.11093 10.5741 7.2269C10.4665 7.34287 10.3328 7.43164 10.1841 7.48589C10.0355 7.54015 9.87606 7.55834 9.719 7.53899C7.56873 7.27485 5.54172 6.39094 3.885 4.99499C3.916 5.59699 4.125 6.23699 4.578 6.90699L5.257 7.91099L4.142 8.38599L3.927 8.47799C4.087 8.66099 4.279 8.84799 4.494 9.03299C4.78141 9.279 5.08547 9.50487 5.404 9.70899L5.415 9.71599H5.416L6.964 10.655L5.344 11.465C5.264 11.505 5.184 11.541 5.104 11.573C5.45234 11.8624 5.83609 12.1064 6.246 12.299L7.636 12.956L6.472 13.96C5.837 14.508 5.198 14.917 4.369 15.133C5.64044 15.8102 7.05944 16.163 8.5 16.16C13.306 16.16 17.176 12.325 17.176 7.62599V7.10599L17.601 6.80699C18.265 6.34099 18.734 5.71099 19.07 4.98999H16.91L16.638 4.41999C16.3875 3.89266 15.9926 3.44719 15.4991 3.1353C15.0056 2.82342 14.4338 2.65791 13.85 2.65799H13.849ZM2.569 9.95799C2.47463 10.0661 2.40463 10.1932 2.36373 10.3307C2.32284 10.4682 2.31202 10.6129 2.332 10.755C2.445 11.556 2.924 12.246 3.454 12.773C3.598 12.916 3.752 13.053 3.914 13.184L3.839 13.204C3.358 13.324 2.709 13.349 1.628 13.244C1.42386 13.224 1.2185 13.2672 1.03975 13.3678C0.861012 13.4684 0.717539 13.6216 0.628787 13.8065C0.540036 13.9915 0.510299 14.1992 0.543609 14.4016C0.576919 14.604 0.671664 14.7913 0.814999 14.938C1.81577 15.9609 3.01129 16.773 4.33102 17.3264C5.65075 17.8798 7.06795 18.1632 8.499 18.16C14.212 18.16 18.898 13.724 19.163 8.12599C20.453 7.04299 21.098 5.57599 21.446 4.24299C21.4847 4.09504 21.4889 3.94019 21.4584 3.79034C21.4279 3.6405 21.3634 3.49965 21.2699 3.37863C21.1764 3.25762 21.0564 3.15965 20.9191 3.09228C20.7818 3.0249 20.6309 2.98991 20.478 2.98999H18.125C17.5494 2.09631 16.7083 1.40543 15.7199 1.01442C14.7314 0.623417 13.6453 0.55194 12.6141 0.810035C11.583 1.06813 10.6586 1.64283 9.97088 2.45337C9.28317 3.26391 8.8667 4.26956 8.78 5.32899C6.93666 4.84914 5.28733 3.8098 4.059 2.35399C3.95022 2.22537 3.81071 2.12632 3.65342 2.06602C3.49613 2.00572 3.32615 1.98614 3.15927 2.00908C2.99239 2.03202 2.83401 2.09675 2.69882 2.19726C2.56364 2.29776 2.45604 2.43079 2.386 2.58399C1.78 3.90599 1.664 5.42999 2.34 6.97999L2.106 7.07999C1.88207 7.17541 1.70064 7.34922 1.5957 7.56885C1.49077 7.78847 1.46954 8.03883 1.536 8.27299C1.722 8.92499 2.14 9.50099 2.568 9.95799H2.569Z" fill="#767B92"/>
</svg>
