<svg width="83" height="83" viewBox="0 0 83 83" fill="none" xmlns="http://www.w3.org/2000/svg">
<path d="M32.1625 44.2664C30.7792 44.2664 29.05 43.5747 29.05 42.1914C29.05 40.8081 30.7792 41.1539 32.1625 38.7331C32.1625 38.7331 38.3875 21.7872 25.9375 21.7872C13.4875 21.7872 19.7125 38.7331 19.7125 38.7331C21.0959 41.1539 22.825 40.8081 22.825 42.1914C22.825 43.5747 21.0959 44.2664 19.7125 44.2664C17.6375 44.6122 15.9084 44.2664 13.8334 46.3414V66.0539H31.125C31.8167 60.1747 33.5459 48.0706 34.9292 44.9581L35.275 44.6122C34.5834 44.2664 33.5459 44.2664 32.1625 44.2664Z" fill="black" fill-opacity="0.4"/>
<path d="M69.1667 43.575C66.7459 40.8084 64.6709 41.1542 62.25 40.8084C60.5209 40.4625 58.4459 40.1167 58.4459 38.3875C58.4459 36.6584 60.5209 37.35 62.25 34.2375C62.25 34.2375 69.5125 13.8334 54.6417 13.8334C39.425 14.1792 46.6875 34.5834 46.6875 34.5834C48.4167 37.35 50.4917 37.0042 50.4917 38.3875C50.4917 40.1167 48.4167 40.4625 46.6875 40.8084C43.575 41.1542 40.8084 40.8084 38.0417 45.9959C36.6584 49.1084 34.5834 66.0542 34.5834 66.0542H69.1667V43.575Z" fill="black" fill-opacity="0.4"/>
</svg>
