<svg width="33" height="32" viewBox="0 0 33 32" fill="none" xmlns="http://www.w3.org/2000/svg">
<path d="M25.2214 16.8356C24.1632 16.6779 23.2088 16.3903 22.3183 15.989C26.5193 12.2433 31.1514 8.92893 31.2113 8.889L31.411 8.74924L31.5308 8.52961C31.8842 7.79684 32.0918 6.93829 32.0918 6.02983C32.0918 4.23086 31.2792 2.62158 30.0034 1.54939C28.9591 0.58701 27.5695 0 26.0441 0C24.9699 0 23.9616 0.291508 23.097 0.798652L22.8454 1.0642C19.6948 5.41886 16.4922 9.24839 13.046 12.8423C9.38017 16.1128 5.31902 19.2216 1.03026 22.0109L0.243589 22.506V22.9652C0.0898484 23.5922 0 24.313 0 25.0537C0 26.9905 0.606976 28.7874 1.64123 30.2629C2.65352 31.3211 4.11106 32 5.72434 32C5.83416 32 5.94197 31.996 6.04779 31.99C6.09971 31.994 6.17758 31.996 6.25544 31.996C7.65508 31.996 8.88501 31.2772 9.5978 30.1891C10.087 29.5741 13.7208 24.9818 17.5943 20.7889C18.1294 21.7154 18.5447 22.7915 18.7803 23.9336C18.8442 24.4308 18.8722 24.9239 18.8722 25.4251C18.8722 27.0683 18.5567 28.6397 17.9837 30.0792L21.348 26.0001L24.0035 27.9968C23.9216 25.6527 23.5183 23.4325 22.8375 21.336C22.3842 20.5054 21.7553 19.6488 21.0105 18.9121C21.8212 19.6029 22.7496 20.1959 23.7499 20.6571C25.6268 21.332 27.7212 21.7992 29.8916 21.9989L27.9968 19.4711L31.99 16.017C30.3328 16.5621 28.426 16.8775 26.4454 16.8775C26.0141 16.8775 25.5868 16.8635 25.1635 16.8336L25.2214 16.8356ZM24.323 2.39995C24.8141 2.15436 25.3932 2.0126 26.0041 2.0126C27.0144 2.0126 27.9329 2.40394 28.6177 3.04287C29.4982 3.75367 30.0573 4.83384 30.0573 6.0458C30.0573 6.52898 29.9674 6.9922 29.8057 7.41948C28.8353 8.03245 25.1216 10.8477 21.5277 14.0223C21.4179 12.9821 20.9247 12.0756 20.1939 11.4307C19.6349 10.9535 18.9101 10.664 18.1194 10.664C17.9837 10.664 17.8499 10.672 17.7181 10.688C20.8488 7.15193 23.6641 3.3184 24.323 2.39995ZM5.43483 23.6241C5.58058 23.5223 5.76228 23.4604 5.95795 23.4604C5.9859 23.4604 6.01186 23.4624 6.03781 23.4644H6.17358C6.53098 23.5682 6.84046 23.7479 7.09403 23.9855L5.35496 25.4211C5.19324 25.0917 5.0994 24.7063 5.0994 24.297C5.0994 24.1932 5.10538 24.0914 5.11736 23.9915C5.17127 23.8378 5.28508 23.704 5.43283 23.6261L5.43483 23.6241ZM8.03045 28.9951C7.68104 29.606 7.03413 30.0094 6.29138 30.0094C6.19954 30.0094 6.11169 30.0034 6.02384 29.9914C5.93199 30.0034 5.81219 30.0074 5.6904 30.0074C4.66213 30.0074 3.7317 29.5901 3.05884 28.9132C2.33007 27.835 1.8948 26.5053 1.8948 25.0757C1.8948 24.5745 1.94871 24.0874 2.04854 23.6181L3.45816 22.7057C3.27048 22.9852 3.13072 23.3127 3.06083 23.6661C3.04686 23.8178 3.04087 23.9735 3.04087 24.1333C3.04087 25.4151 3.44419 26.6031 4.12903 27.5755L4.83584 28.454L8.23011 25.6587C8.36189 26.076 8.43776 26.5572 8.43776 27.0563C8.43776 27.7572 8.28801 28.424 8.01847 29.023L8.03045 28.9951ZM9.74755 24.1033C9.05871 22.9054 7.97255 22.0009 6.67274 21.5596C6.53098 21.5357 6.41318 21.5277 6.29338 21.5277C6.17358 21.5277 6.05578 21.5357 5.93998 21.5476C5.84813 21.5337 5.72833 21.5257 5.60454 21.5257C5.48075 21.5257 5.36095 21.5337 5.24116 21.5476C8.21414 19.5151 10.7638 17.5484 13.2037 15.4539C13.9984 15.5957 14.825 15.9531 15.4619 16.5181C16.0549 17.1431 16.4203 17.9936 16.4203 18.9321C16.4203 18.9959 16.4183 19.0578 16.4163 19.1197C14.1401 21.5676 11.9239 24.1832 10.4264 26.1199C10.3186 25.3632 10.073 24.6843 9.71361 24.0774L9.74755 24.1033Z" fill="#2575FC"/>
</svg>
