<svg width="32" height="32" viewBox="0 0 32 32" fill="none" xmlns="http://www.w3.org/2000/svg">
<path d="M16 0C7.2 0 0 7.2 0 16C0 24.8 7.2 32 16 32C24.8 32 32 24.8 32 16C32 7.2 24.8 0 16 0ZM26.4 10.6C27.2 10.6 27.8 11.2 28.6 11.2C28 12 25.4 12 24.6 11C25.2 10.8 25.6 10.6 26.4 10.6ZM2 16C2 15.2 2 14.4 2.2 13.4C2.4 13.4 2.6 13.6 2.8 13.6C2.8 13.6 3 13.8 3 14C3 14.6 3.6 15 4 15C5.6 15.2 6.2 16.6 7.6 17C8 17.2 7.8 17.6 7.6 18C6.4 19.6 7.4 20.8 8.4 21.8C9.4 22.6 9.4 23.4 9.6 24.6C9.6 26 9.8 27.6 10.4 29C5.4 26.6 2 21.8 2 16ZM16 30C14.6 30 13 29.8 11.8 29.4C11.6 29 11.6 28.6 11.8 28.2C12.6 26.6 13.4 25.2 14.4 23.8C14.8 23.4 15.2 23 15.2 22.4C15.2 22 15.4 21.4 15.6 21C16.2 20 16 19.4 15.2 19.2C13.6 18.8 12.8 17.4 11.6 16.8C10.4 16.2 9.2 15.8 8.2 16.4C7.8 16.6 7.2 16.8 7.2 16.2C7.2 15.4 6.2 14.8 6.4 14C6.2 14 6 14 5.8 14.2C5.6 14.4 5.4 14.6 5 14.4C4.6 14 4.8 13.6 4.8 13.2C5 12.8 5.2 12.6 5.6 12.4C6.4 12.2 7.2 12.2 7.6 13.2C8.2 11.4 9.4 10.4 10.6 9.6C10.6 9.6 12.2 8.2 12.4 8.2C12.6 8.2 12.8 8.6 13.2 8.8C13.6 8.8 13.8 8.8 13.8 8.4C14 7.4 13.4 6.2 12.6 6C12.6 5.8 12.8 5.8 12.8 5.8C13.4 5.6 14.2 5.2 14 4.6C14 3.8 13.2 3.4 12.4 3.4C12 3.4 11.6 3.4 11.2 3.6C10.4 4 9.4 4.4 8.2 4.4C10.4 2.8 13.2 2 16 2C16.6 2 17 2 17.6 2C16.4 2.2 15.2 2.6 14.4 3C15.6 3.2 15.8 3.8 15.4 4.8C15.2 5.2 15.4 5.6 15.8 5.8C16.2 6 16.6 6 16.8 5.6C17.2 5 18 4.8 18.6 4.6C19.4 4.4 20 4 20.6 3.2C20.6 3 20.8 3 21 2.8C22.2 3.2 23.4 4 24.6 4.8C24.4 4.8 24.4 5 24.2 5C23.8 5.4 23.2 5.6 23.8 6.4C24 6.8 23.8 7 23.6 7.2C23.2 7.4 23 7.2 22.8 7C22.6 6.8 22.6 6.4 22 6.4C21.8 6.8 21.2 7 21.2 7.6C22.2 7.6 22 8.4 22.2 9C21 9.2 20.6 9.8 21.2 10.8C21.4 11.2 21 11.4 20.8 11.6C20 12.8 19.2 13.6 19.2 15C19.2 16.4 20.2 17.8 21.8 17.6C23.6 17.4 23.6 17.4 24.2 19C24.2 19.2 24.4 19.4 24.4 19.6C24.6 20 24.8 20.4 24.6 20.8C24 22.4 24.8 23.6 25.4 24.8C25.6 25.2 25.8 25.4 26 25.6C23.4 28.4 20 30 16 30Z" fill="#2575FC"/>
</svg>
