<svg width="32" height="30" viewBox="0 0 32 30" fill="none" xmlns="http://www.w3.org/2000/svg">
<path fill-rule="evenodd" clip-rule="evenodd" d="M31.7333 23.4934L31.7346 23.4974C32.1746 24.0707 32.3853 25.976 29.3679 25.6374C28.1289 25.5164 26.9111 25.234 25.7453 24.7974C24.834 24.448 23.9625 24.0028 23.1453 23.4694C21.9342 23.9568 20.6514 24.2423 19.3479 24.3147C18.4177 25.5629 17.2086 26.5764 15.817 27.2741C14.4254 27.9719 12.89 28.3346 11.3333 28.3334C10.2829 28.3343 9.23899 28.1696 8.23993 27.8454C7.65326 28.1854 6.98659 28.5174 6.25059 28.796C4.75726 29.3614 3.51859 29.5734 2.62793 29.636C1.96126 29.6854 1.49059 29.6507 1.25859 29.624C0.749261 29.5654 0.293261 29.2747 0.0959277 28.7867C0.011185 28.5756 -0.0181105 28.3462 0.0108293 28.1205C0.039769 27.8948 0.125981 27.6803 0.261261 27.4974C0.597261 27.0374 0.906594 26.556 1.19993 26.068C1.77059 25.116 2.33059 24.0894 2.47193 22.972C1.84667 21.7784 1.4691 20.4707 1.3619 19.1275C1.2547 17.7842 1.42008 16.4332 1.8481 15.1555C2.27612 13.8778 2.95796 12.6998 3.85266 11.6922C4.74736 10.6846 5.83648 9.86819 7.05459 9.29205C7.48107 7.68075 8.23855 6.17597 9.27874 4.87361C10.3189 3.57124 11.619 2.49985 13.0962 1.72772C14.5733 0.955597 16.1951 0.499662 17.8583 0.388977C19.5214 0.278292 21.1893 0.515284 22.7557 1.08485C24.3222 1.65442 25.7528 2.54406 26.9564 3.6971C28.16 4.85013 29.1102 6.24126 29.7465 7.78183C30.3827 9.3224 30.691 10.9786 30.6518 12.6449C30.6126 14.3113 30.2266 15.9511 29.5186 17.46C29.2653 19.7587 30.4213 21.6934 31.7319 23.4934H31.7333ZM9.33326 12.3334C9.33399 10.927 9.65255 9.53892 10.2651 8.27293C10.8777 7.00695 11.7685 5.89577 12.8709 5.02243C13.9733 4.14909 15.2588 3.53618 16.6313 3.22949C18.0039 2.92281 19.428 2.93027 20.7973 3.25134C22.1665 3.5724 23.4455 4.19876 24.5387 5.08361C25.6319 5.96846 26.511 7.08891 27.1102 8.36126C27.7095 9.6336 28.0135 11.0249 27.9995 12.4313C27.9854 13.8376 27.6538 15.2226 27.0293 16.4827C26.9652 16.6114 26.9225 16.7497 26.9026 16.892C26.6106 18.992 27.1026 20.9067 28.1093 22.7454C26.6531 22.391 25.2805 21.7546 24.0693 20.872C23.8747 20.7309 23.6456 20.645 23.4062 20.6234C23.1668 20.6018 22.926 20.6453 22.7093 20.7494C21.2862 21.4332 19.7129 21.7449 18.1366 21.6553C16.5603 21.5656 15.0325 21.0776 13.6962 20.2368C12.3598 19.396 11.2586 18.2299 10.4956 16.8477C9.73256 15.4654 9.33265 13.9122 9.33326 12.3334ZM6.67193 12.672C6.74692 15.3246 7.69866 17.8776 9.37837 19.932C11.0581 21.9863 13.3711 23.4263 15.9559 24.0267C14.6502 25.09 13.0171 25.6694 11.3333 25.6667C10.3599 25.6667 9.43593 25.4787 8.59059 25.1374C8.39271 25.0573 8.17849 25.026 7.96596 25.0459C7.75343 25.0659 7.54879 25.1366 7.36926 25.252C6.78393 25.6294 6.08926 26.0054 5.30526 26.3027C4.84165 26.4795 4.36738 26.6269 3.88526 26.744C4.32926 25.9347 4.77859 24.9707 4.98393 24.064C5.08659 23.6147 5.14393 23.1787 5.16793 22.7694C5.18419 22.5061 5.12202 22.244 4.98926 22.016C4.33873 20.8979 3.99728 19.627 3.99993 18.3334C3.99993 16.0534 5.03993 14.0174 6.67193 12.672Z" fill="#2575FC"/>
</svg>
