<svg width="28" height="24" viewBox="0 0 28 24" fill="none" xmlns="http://www.w3.org/2000/svg">
<path d="M7 0C5.075 0 3.36 0.809384 2.065 2.07625C0.805 3.34311 0 5.06745 0 7.03812C0 8.97361 0.805 10.6979 2.065 12L14 24L25.935 12C27.195 10.7331 28 9.0088 28 7.03812C28 5.10264 27.195 3.3783 25.935 2.07625C24.675 0.809384 22.96 0 21 0C19.075 0 17.36 0.809384 16.065 2.07625C14.805 3.34311 14 5.06745 14 7.03812C14 5.10264 13.195 3.3783 11.935 2.07625C10.675 0.809384 8.96 0 7 0V0Z" fill="#33CA94"/>
</svg>
