<svg width="22" height="20" viewBox="0 0 22 20" fill="none" xmlns="http://www.w3.org/2000/svg">
<path fill-rule="evenodd" clip-rule="evenodd" d="M6.84499 2.77499C9.43699 2.40799 12.563 2.40799 15.155 2.77499C17.51 3.10899 19.335 4.76099 19.683 6.54099C20.106 8.69599 20.106 11.304 19.683 13.459C19.334 15.239 17.51 16.891 15.155 17.225C12.563 17.592 9.43599 17.592 6.84499 17.225C4.48999 16.891 2.66599 15.239 2.31699 13.459C1.89399 11.304 1.89399 8.69599 2.31699 6.54099C2.66599 4.76099 4.48999 3.10899 6.84499 2.77499ZM15.435 0.794994C12.658 0.401994 9.34199 0.401994 6.56499 0.794994C3.54999 1.22199 0.899994 3.37299 0.354994 6.15699C-0.118006 8.56599 -0.118006 11.434 0.354994 13.843C0.899994 16.627 3.54999 18.778 6.56499 19.205C9.34199 19.598 12.658 19.598 15.435 19.205C18.45 18.778 21.1 16.627 21.645 13.843C22.118 11.434 22.118 8.56599 21.645 6.15699C21.1 3.37299 18.45 1.22199 15.435 0.794994ZM9.55499 5.16799C9.40439 5.06752 9.22934 5.00981 9.04851 5.00102C8.86768 4.99224 8.68786 5.03271 8.52823 5.11812C8.3686 5.20353 8.23515 5.33067 8.14212 5.48599C8.04909 5.6413 7.99997 5.81895 7.99999 5.99999V14C7.99997 14.181 8.04909 14.3587 8.14212 14.514C8.23515 14.6693 8.3686 14.7965 8.52823 14.8819C8.68786 14.9673 8.86768 15.0077 9.04851 14.999C9.22934 14.9902 9.40439 14.9325 9.55499 14.832L15.555 10.832C15.692 10.7407 15.8042 10.617 15.8819 10.4718C15.9596 10.3267 16.0002 10.1646 16.0002 9.99999C16.0002 9.83538 15.9596 9.67332 15.8819 9.52818C15.8042 9.38304 15.692 9.25932 15.555 9.16799L9.55499 5.16799ZM13.197 9.99999L9.99999 12.132V7.86899L13.197 9.99999Z" fill="#767B92"/>
</svg>
